<?xml version="1.0" encoding="UTF-8" standalone="no"?>
<!DOCTYPE svg PUBLIC "-//W3C//DTD SVG 1.1//EN"
 "http://www.w3.org/Graphics/SVG/1.1/DTD/svg11.dtd">
<!-- Generated by graphviz version 8.0.5 (20230430.1635)
 -->
<!-- Title: Tree Pages: 1 -->
<svg width="5535pt" height="550pt"
 viewBox="0.00 0.00 5534.71 549.75" xmlns="http://www.w3.org/2000/svg" xmlns:xlink="http://www.w3.org/1999/xlink">
<g id="graph0" class="graph" transform="scale(1 1) rotate(0) translate(4 545.75)">
<title>Tree</title>
<polygon fill="white" stroke="none" points="-4,4 -4,-545.75 5530.71,-545.75 5530.71,4 -4,4"/>
<!-- 0 -->
<g id="node1" class="node">
<title>0</title>
<ellipse fill="#f7ae91" stroke="black" cx="1969.94" cy="-499.5" rx="333.21" ry="42.25"/>
<text text-anchor="start" x="1962.44" y="-512.07" font-family="MicrosoftYaHei" font-size="14.00">84</text>
<text text-anchor="start" x="1902.81" y="-494.82" font-family="MicrosoftYaHei" font-size="14.00">friedman_mse=1.582</text>
<text text-anchor="start" x="1742.32" y="-477.57" font-family="MicrosoftYaHei" font-size="14.00">7.您修读高数或数分这门课的原因是(单选)A.如果不是必修我才不学呢</text>
</g>
<!-- 1 -->
<g id="node2" class="node">
<title>1</title>
<ellipse fill="#f29375" stroke="black" cx="1341.94" cy="-379" rx="368.74" ry="42.25"/>
<text text-anchor="start" x="1334.44" y="-391.57" font-family="MicrosoftYaHei" font-size="14.00">51</text>
<text text-anchor="start" x="1278.56" y="-374.32" font-family="MicrosoftYaHei" font-size="14.00">friedman_mse=0.89</text>
<text text-anchor="start" x="1089.2" y="-357.07" font-family="MicrosoftYaHei" font-size="14.00">9.问微积分题目的思路时您更倾向于问:搜索引擎（包括Slader， ChatGPT等）</text>
</g>
<!-- 0&#45;&gt;1 -->
<g id="edge1" class="edge">
<title>0&#45;&gt;1</title>
<path fill="none" stroke="black" d="M1786.18,-463.82C1709.36,-449.33 1619.9,-432.45 1541.48,-417.65"/>
<polygon fill="black" stroke="black" points="1542.46,-414.08 1531.98,-415.67 1541.16,-420.96 1542.46,-414.08"/>
<text text-anchor="middle" x="1545.07" y="-431.64" font-family="MicrosoftYaHei" font-size="14.00">&lt;=0.5</text>
</g>
<!-- 16 -->
<g id="node3" class="node">
<title>16</title>
<ellipse fill="#eecfbe" stroke="black" cx="2958.94" cy="-379" rx="246.24" ry="42.25"/>
<text text-anchor="start" x="2951.44" y="-391.57" font-family="MicrosoftYaHei" font-size="14.00">33</text>
<text text-anchor="start" x="2891.81" y="-374.32" font-family="MicrosoftYaHei" font-size="14.00">friedman_mse=2.143</text>
<text text-anchor="start" x="2792.82" y="-357.07" font-family="MicrosoftYaHei" font-size="14.00">9.问微积分题目的思路时您更倾向于问:老师，助教</text>
</g>
<!-- 0&#45;&gt;16 -->
<g id="edge2" class="edge">
<title>0&#45;&gt;16</title>
<path fill="none" stroke="black" d="M2209.66,-469.77C2374.11,-450.07 2590.27,-424.17 2748.13,-405.26"/>
<polygon fill="black" stroke="black" points="2748.41,-408.63 2757.92,-403.96 2747.57,-401.68 2748.41,-408.63"/>
<text text-anchor="middle" x="2743.47" y="-418.94" font-family="MicrosoftYaHei" font-size="14.00">&gt;0.5</text>
</g>
<!-- 2 -->
<g id="node4" class="node">
<title>2</title>
<ellipse fill="#f59e7f" stroke="black" cx="635.94" cy="-258.5" rx="258.97" ry="42.25"/>
<text text-anchor="start" x="628.44" y="-271.07" font-family="MicrosoftYaHei" font-size="14.00">38</text>
<text text-anchor="start" x="568.81" y="-253.82" font-family="MicrosoftYaHei" font-size="14.00">friedman_mse=0.953</text>
<text text-anchor="start" x="460.82" y="-236.57" font-family="MicrosoftYaHei" font-size="14.00">5.请问您上的微积分或分析课程是？(单选)A.数学分析</text>
</g>
<!-- 1&#45;&gt;2 -->
<g id="edge3" class="edge">
<title>1&#45;&gt;2</title>
<path fill="none" stroke="black" d="M1136.78,-343.56C1038.48,-327.06 921.51,-307.43 825.34,-291.29"/>
<polygon fill="black" stroke="black" points="826.06,-287.69 815.62,-289.49 824.9,-294.6 826.06,-287.69"/>
<text text-anchor="middle" x="829.13" y="-305.17" font-family="MicrosoftYaHei" font-size="14.00">&lt;=0.5</text>
</g>
<!-- 9 -->
<g id="node5" class="node">
<title>9</title>
<ellipse fill="#e46e56" stroke="black" cx="1341.94" cy="-258.5" rx="205.94" ry="42.25"/>
<text text-anchor="start" x="1334.44" y="-271.07" font-family="MicrosoftYaHei" font-size="14.00">13</text>
<text text-anchor="start" x="1274.81" y="-253.82" font-family="MicrosoftYaHei" font-size="14.00">friedman_mse=0.485</text>
<text text-anchor="start" x="1204.32" y="-236.57" font-family="MicrosoftYaHei" font-size="14.00">6.您之前学过微积分吗？(单选)C.没有学过</text>
</g>
<!-- 1&#45;&gt;9 -->
<g id="edge4" class="edge">
<title>1&#45;&gt;9</title>
<path fill="none" stroke="black" d="M1341.94,-336.55C1341.94,-328.66 1341.94,-320.3 1341.94,-312.12"/>
<polygon fill="black" stroke="black" points="1345.44,-312.12 1341.94,-302.12 1338.44,-312.12 1345.44,-312.12"/>
<text text-anchor="middle" x="1359.61" y="-314.12" font-family="MicrosoftYaHei" font-size="14.00">&gt;0.5</text>
</g>
<!-- 17 -->
<g id="node18" class="node">
<title>17</title>
<ellipse fill="#e6d7cf" stroke="black" cx="2958.94" cy="-258.5" rx="368.74" ry="42.25"/>
<text text-anchor="start" x="2951.44" y="-271.07" font-family="MicrosoftYaHei" font-size="14.00">29</text>
<text text-anchor="start" x="2891.81" y="-253.82" font-family="MicrosoftYaHei" font-size="14.00">friedman_mse=2.007</text>
<text text-anchor="start" x="2706.2" y="-236.57" font-family="MicrosoftYaHei" font-size="14.00">9.问微积分题目的思路时您更倾向于问:搜索引擎（包括Slader， ChatGPT等）</text>
</g>
<!-- 16&#45;&gt;17 -->
<g id="edge17" class="edge">
<title>16&#45;&gt;17</title>
<path fill="none" stroke="black" d="M2958.94,-336.55C2958.94,-328.66 2958.94,-320.3 2958.94,-312.12"/>
<polygon fill="black" stroke="black" points="2962.44,-312.12 2958.94,-302.12 2955.44,-312.12 2962.44,-312.12"/>
<text text-anchor="middle" x="2941.26" y="-314.12" font-family="MicrosoftYaHei" font-size="14.00">&lt;=0.5</text>
</g>
<!-- 24 -->
<g id="node19" class="node">
<title>24</title>
<ellipse fill="#d65243" stroke="black" cx="4247.94" cy="-258.5" rx="216.54" ry="42.25"/>
<text text-anchor="start" x="4244.19" y="-271.07" font-family="MicrosoftYaHei" font-size="14.00">4</text>
<text text-anchor="start" x="4184.56" y="-253.82" font-family="MicrosoftYaHei" font-size="14.00">friedman_mse=0.25</text>
<text text-anchor="start" x="4102.82" y="-236.57" font-family="MicrosoftYaHei" font-size="14.00">6.您之前学过微积分吗？(单选)B.简单预习过</text>
</g>
<!-- 16&#45;&gt;24 -->
<g id="edge18" class="edge">
<title>16&#45;&gt;24</title>
<path fill="none" stroke="black" d="M3174.32,-358.2C3415.92,-335.99 3804.95,-300.22 4042.43,-278.39"/>
<polygon fill="black" stroke="black" points="4042.64,-281.8 4052.27,-277.39 4042,-274.82 4042.64,-281.8"/>
<text text-anchor="middle" x="4037.29" y="-291.94" font-family="MicrosoftYaHei" font-size="14.00">&gt;0.5</text>
</g>
<!-- 3 -->
<g id="node6" class="node">
<title>3</title>
<ellipse fill="#f6a789" stroke="black" cx="205.94" cy="-138" rx="205.94" ry="42.25"/>
<text text-anchor="start" x="198.44" y="-150.57" font-family="MicrosoftYaHei" font-size="14.00">30</text>
<text text-anchor="start" x="138.81" y="-133.32" font-family="MicrosoftYaHei" font-size="14.00">friedman_mse=0.712</text>
<text text-anchor="start" x="68.32" y="-116.07" font-family="MicrosoftYaHei" font-size="14.00">6.您之前学过微积分吗？(单选)C.没有学过</text>
</g>
<!-- 2&#45;&gt;3 -->
<g id="edge5" class="edge">
<title>2&#45;&gt;3</title>
<path fill="none" stroke="black" d="M505.76,-221.62C452.69,-207 391.41,-190.11 338.14,-175.43"/>
<polygon fill="black" stroke="black" points="339.16,-171.81 328.59,-172.53 337.3,-178.56 339.16,-171.81"/>
<text text-anchor="middle" x="339.94" y="-189.59" font-family="MicrosoftYaHei" font-size="14.00">&lt;=0.5</text>
</g>
<!-- 6 -->
<g id="node7" class="node">
<title>6</title>
<ellipse fill="#e8775d" stroke="black" cx="635.94" cy="-138" rx="205.94" ry="42.25"/>
<text text-anchor="start" x="632.19" y="-150.57" font-family="MicrosoftYaHei" font-size="14.00">8</text>
<text text-anchor="start" x="568.81" y="-133.32" font-family="MicrosoftYaHei" font-size="14.00">friedman_mse=1.609</text>
<text text-anchor="start" x="498.32" y="-116.07" font-family="MicrosoftYaHei" font-size="14.00">6.您之前学过微积分吗？(单选)C.没有学过</text>
</g>
<!-- 2&#45;&gt;6 -->
<g id="edge6" class="edge">
<title>2&#45;&gt;6</title>
<path fill="none" stroke="black" d="M635.94,-216.05C635.94,-208.16 635.94,-199.8 635.94,-191.62"/>
<polygon fill="black" stroke="black" points="639.44,-191.62 635.94,-181.62 632.44,-191.62 639.44,-191.62"/>
<text text-anchor="middle" x="653.61" y="-193.62" font-family="MicrosoftYaHei" font-size="14.00">&gt;0.5</text>
</g>
<!-- 10 -->
<g id="node12" class="node">
<title>10</title>
<ellipse fill="#cc3f39" stroke="black" cx="1073.94" cy="-138" rx="214.42" ry="42.25"/>
<text text-anchor="start" x="1070.19" y="-150.57" font-family="MicrosoftYaHei" font-size="14.00">6</text>
<text text-anchor="start" x="1006.81" y="-133.32" font-family="MicrosoftYaHei" font-size="14.00">friedman_mse=0.222</text>
<text text-anchor="start" x="930.32" y="-116.07" font-family="MicrosoftYaHei" font-size="14.00">9.问微积分题目的思路时您更倾向于问:同学</text>
</g>
<!-- 9&#45;&gt;10 -->
<g id="edge11" class="edge">
<title>9&#45;&gt;10</title>
<path fill="none" stroke="black" d="M1256.4,-219.68C1228.86,-207.5 1198.16,-193.93 1169.92,-181.44"/>
<polygon fill="black" stroke="black" points="1171.6,-177.91 1161.04,-177.07 1168.77,-184.31 1171.6,-177.91"/>
<text text-anchor="middle" x="1169.06" y="-195.71" font-family="MicrosoftYaHei" font-size="14.00">&lt;=0.5</text>
</g>
<!-- 13 -->
<g id="node13" class="node">
<title>13</title>
<ellipse fill="#f19072" stroke="black" cx="1564.94" cy="-138" rx="258.97" ry="42.25"/>
<text text-anchor="start" x="1561.19" y="-150.57" font-family="MicrosoftYaHei" font-size="14.00">7</text>
<text text-anchor="start" x="1497.81" y="-133.32" font-family="MicrosoftYaHei" font-size="14.00">friedman_mse=0.408</text>
<text text-anchor="start" x="1389.82" y="-116.07" font-family="MicrosoftYaHei" font-size="14.00">5.请问您上的微积分或分析课程是？(单选)A.数学分析</text>
</g>
<!-- 9&#45;&gt;13 -->
<g id="edge12" class="edge">
<title>9&#45;&gt;13</title>
<path fill="none" stroke="black" d="M1414.96,-218.7C1435.87,-207.59 1458.84,-195.38 1480.38,-183.93"/>
<polygon fill="black" stroke="black" points="1481.65,-186.69 1488.84,-178.9 1478.37,-180.51 1481.65,-186.69"/>
<text text-anchor="middle" x="1482.53" y="-198.13" font-family="MicrosoftYaHei" font-size="14.00">&gt;0.5</text>
</g>
<!-- 4 -->
<g id="node8" class="node">
<title>4</title>
<polygon fill="#f5c0a7" stroke="black" points="195.31,-59.75 52.56,-59.75 52.56,0 195.31,0 195.31,-59.75"/>
<text text-anchor="start" x="116.44" y="-42.45" font-family="MicrosoftYaHei" font-size="14.00">10</text>
<text text-anchor="start" x="60.56" y="-25.2" font-family="MicrosoftYaHei" font-size="14.00">friedman_mse=0.76</text>
<text text-anchor="start" x="114.19" y="-7.95" font-family="MicrosoftYaHei" font-size="14.00">4.2</text>
</g>
<!-- 3&#45;&gt;4 -->
<g id="edge7" class="edge">
<title>3&#45;&gt;4</title>
<path fill="none" stroke="black" d="M174.23,-95.97C167.27,-86.96 159.93,-77.46 153.07,-68.58"/>
<polygon fill="black" stroke="black" points="155.29,-66.73 146.41,-60.96 149.76,-71.01 155.29,-66.73"/>
<text text-anchor="middle" x="143.23" y="-80.08" font-family="MicrosoftYaHei" font-size="14.00">&lt;=0.5</text>
</g>
<!-- 5 -->
<g id="node9" class="node">
<title>5</title>
<polygon fill="#f39879" stroke="black" points="364.06,-59.75 213.81,-59.75 213.81,0 364.06,0 364.06,-59.75"/>
<text text-anchor="start" x="281.44" y="-42.45" font-family="MicrosoftYaHei" font-size="14.00">20</text>
<text text-anchor="start" x="221.81" y="-25.2" font-family="MicrosoftYaHei" font-size="14.00">friedman_mse=0.587</text>
<text text-anchor="start" x="275.44" y="-7.95" font-family="MicrosoftYaHei" font-size="14.00">4.75</text>
</g>
<!-- 3&#45;&gt;5 -->
<g id="edge8" class="edge">
<title>3&#45;&gt;5</title>
<path fill="none" stroke="black" d="M238.03,-95.97C245.07,-86.96 252.5,-77.46 259.44,-68.58"/>
<polygon fill="black" stroke="black" points="262.79,-70.99 266.19,-60.96 257.27,-66.68 262.79,-70.99"/>
<text text-anchor="middle" x="269.22" y="-80.1" font-family="MicrosoftYaHei" font-size="14.00">&gt;0.5</text>
</g>
<!-- 7 -->
<g id="node10" class="node">
<title>7</title>
<polygon fill="#d65243" stroke="black" points="659.31,-59.75 516.56,-59.75 516.56,0 659.31,0 659.31,-59.75"/>
<text text-anchor="start" x="584.19" y="-42.45" font-family="MicrosoftYaHei" font-size="14.00">6</text>
<text text-anchor="start" x="524.56" y="-25.2" font-family="MicrosoftYaHei" font-size="14.00">friedman_mse=0.25</text>
<text text-anchor="start" x="578.19" y="-7.95" font-family="MicrosoftYaHei" font-size="14.00">5.5</text>
</g>
<!-- 6&#45;&gt;7 -->
<g id="edge9" class="edge">
<title>6&#45;&gt;7</title>
<path fill="none" stroke="black" d="M617.24,-95.67C613.42,-87.22 609.42,-78.37 605.64,-70.01"/>
<polygon fill="black" stroke="black" points="608.47,-68.78 601.16,-61.12 602.09,-71.67 608.47,-68.78"/>
<text text-anchor="middle" x="592.34" y="-78.83" font-family="MicrosoftYaHei" font-size="14.00">&lt;=0.5</text>
</g>
<!-- 8 -->
<g id="node11" class="node">
<title>8</title>
<polygon fill="#f1cab6" stroke="black" points="812.56,-59.75 677.31,-59.75 677.31,0 812.56,0 812.56,-59.75"/>
<text text-anchor="start" x="741.19" y="-42.45" font-family="MicrosoftYaHei" font-size="14.00">2</text>
<text text-anchor="start" x="685.31" y="-25.2" font-family="MicrosoftYaHei" font-size="14.00">friedman_mse=4.0</text>
<text text-anchor="start" x="735.19" y="-7.95" font-family="MicrosoftYaHei" font-size="14.00">4.0</text>
</g>
<!-- 6&#45;&gt;8 -->
<g id="edge10" class="edge">
<title>6&#45;&gt;8</title>
<path fill="none" stroke="black" d="M677.77,-96.27C687.43,-86.87 697.65,-76.91 707.13,-67.68"/>
<polygon fill="black" stroke="black" points="709.17,-70.61 713.89,-61.13 704.28,-65.6 709.17,-70.61"/>
<text text-anchor="middle" x="714.56" y="-80.45" font-family="MicrosoftYaHei" font-size="14.00">&gt;0.5</text>
</g>
<!-- 11 -->
<g id="node14" class="node">
<title>11</title>
<polygon fill="#b30326" stroke="black" points="1027.56,-59.75 892.31,-59.75 892.31,0 1027.56,0 1027.56,-59.75"/>
<text text-anchor="start" x="956.19" y="-42.45" font-family="MicrosoftYaHei" font-size="14.00">3</text>
<text text-anchor="start" x="900.31" y="-25.2" font-family="MicrosoftYaHei" font-size="14.00">friedman_mse=0.0</text>
<text text-anchor="start" x="950.19" y="-7.95" font-family="MicrosoftYaHei" font-size="14.00">6.0</text>
</g>
<!-- 10&#45;&gt;11 -->
<g id="edge13" class="edge">
<title>10&#45;&gt;11</title>
<path fill="none" stroke="black" d="M1030.19,-96.27C1019.98,-86.77 1009.17,-76.71 999.18,-67.41"/>
<polygon fill="black" stroke="black" points="1002.07,-65.38 992.36,-61.13 997.3,-70.5 1002.07,-65.38"/>
<text text-anchor="middle" x="992.25" y="-80.44" font-family="MicrosoftYaHei" font-size="14.00">&lt;=0.5</text>
</g>
<!-- 12 -->
<g id="node15" class="node">
<title>12</title>
<polygon fill="#df644f" stroke="black" points="1196.06,-59.75 1045.81,-59.75 1045.81,0 1196.06,0 1196.06,-59.75"/>
<text text-anchor="start" x="1117.19" y="-42.45" font-family="MicrosoftYaHei" font-size="14.00">3</text>
<text text-anchor="start" x="1053.81" y="-25.2" font-family="MicrosoftYaHei" font-size="14.00">friedman_mse=0.222</text>
<text text-anchor="start" x="1103.69" y="-7.95" font-family="MicrosoftYaHei" font-size="14.00">5.333</text>
</g>
<!-- 10&#45;&gt;12 -->
<g id="edge14" class="edge">
<title>10&#45;&gt;12</title>
<path fill="none" stroke="black" d="M1092.24,-95.67C1095.98,-87.22 1099.9,-78.37 1103.61,-70.01"/>
<polygon fill="black" stroke="black" points="1107.14,-71.68 1107.99,-61.12 1100.74,-68.84 1107.14,-71.68"/>
<text text-anchor="middle" x="1116.99" y="-78.76" font-family="MicrosoftYaHei" font-size="14.00">&gt;0.5</text>
</g>
<!-- 14 -->
<g id="node16" class="node">
<title>14</title>
<polygon fill="#f5a081" stroke="black" points="1559.06,-59.75 1408.81,-59.75 1408.81,0 1559.06,0 1559.06,-59.75"/>
<text text-anchor="start" x="1480.19" y="-42.45" font-family="MicrosoftYaHei" font-size="14.00">6</text>
<text text-anchor="start" x="1416.81" y="-25.2" font-family="MicrosoftYaHei" font-size="14.00">friedman_mse=0.222</text>
<text text-anchor="start" x="1466.69" y="-7.95" font-family="MicrosoftYaHei" font-size="14.00">4.667</text>
</g>
<!-- 13&#45;&gt;14 -->
<g id="edge15" class="edge">
<title>13&#45;&gt;14</title>
<path fill="none" stroke="black" d="M1533.39,-95.67C1526.59,-86.76 1519.44,-77.39 1512.76,-68.63"/>
<polygon fill="black" stroke="black" points="1515.1,-66.94 1506.25,-61.12 1509.54,-71.19 1515.1,-66.94"/>
<text text-anchor="middle" x="1502.93" y="-80.22" font-family="MicrosoftYaHei" font-size="14.00">&lt;=0.5</text>
</g>
<!-- 15 -->
<g id="node17" class="node">
<title>15</title>
<polygon fill="#b30326" stroke="black" points="1712.56,-59.75 1577.31,-59.75 1577.31,0 1712.56,0 1712.56,-59.75"/>
<text text-anchor="start" x="1641.19" y="-42.45" font-family="MicrosoftYaHei" font-size="14.00">1</text>
<text text-anchor="start" x="1585.31" y="-25.2" font-family="MicrosoftYaHei" font-size="14.00">friedman_mse=0.0</text>
<text text-anchor="start" x="1635.19" y="-7.95" font-family="MicrosoftYaHei" font-size="14.00">6.0</text>
</g>
<!-- 13&#45;&gt;15 -->
<g id="edge16" class="edge">
<title>13&#45;&gt;15</title>
<path fill="none" stroke="black" d="M1596.1,-95.67C1602.81,-86.76 1609.87,-77.39 1616.47,-68.63"/>
<polygon fill="black" stroke="black" points="1619.67,-71.21 1622.89,-61.12 1614.08,-66.99 1619.67,-71.21"/>
<text text-anchor="middle" x="1626.37" y="-80.2" font-family="MicrosoftYaHei" font-size="14.00">&gt;0.5</text>
</g>
<!-- 18 -->
<g id="node20" class="node">
<title>18</title>
<ellipse fill="#edd0c1" stroke="black" cx="2374.94" cy="-138" rx="532.6" ry="42.25"/>
<text text-anchor="start" x="2367.44" y="-150.57" font-family="MicrosoftYaHei" font-size="14.00">23</text>
<text text-anchor="start" x="2307.81" y="-133.32" font-family="MicrosoftYaHei" font-size="14.00">friedman_mse=1.766</text>
<text text-anchor="start" x="2006.33" y="-116.07" font-family="MicrosoftYaHei" font-size="14.00">8.做高数或数分题目时，若您需要使用答案，一般如何获取答案？:问思路（包括助教，老师，同学，搜索引擎）</text>
</g>
<!-- 17&#45;&gt;18 -->
<g id="edge19" class="edge">
<title>17&#45;&gt;18</title>
<path fill="none" stroke="black" d="M2779.75,-221.14C2715.62,-208.13 2642.91,-193.37 2576.98,-180"/>
<polygon fill="black" stroke="black" points="2577.96,-176.42 2567.46,-177.86 2576.56,-183.28 2577.96,-176.42"/>
<text text-anchor="middle" x="2580.27" y="-194.03" font-family="MicrosoftYaHei" font-size="14.00">&lt;=0.5</text>
</g>
<!-- 21 -->
<g id="node21" class="node">
<title>21</title>
<ellipse fill="#c0d3f5" stroke="black" cx="3543.94" cy="-138" rx="617.98" ry="42.25"/>
<text text-anchor="start" x="3540.19" y="-150.57" font-family="MicrosoftYaHei" font-size="14.00">6</text>
<text text-anchor="start" x="3476.81" y="-133.32" font-family="MicrosoftYaHei" font-size="14.00">friedman_mse=2.333</text>
<text text-anchor="start" x="3114.96" y="-116.07" font-family="MicrosoftYaHei" font-size="14.00">10.您在高数学习的过程中，如果不使用/少使用答案，您的学习会更好吗？(单选)A.肯定不会，答案的提示对我学会微积分帮助很大</text>
</g>
<!-- 17&#45;&gt;21 -->
<g id="edge20" class="edge">
<title>17&#45;&gt;21</title>
<path fill="none" stroke="black" d="M3138.03,-221.22C3201.33,-208.4 3273.01,-193.88 3338.33,-180.65"/>
<polygon fill="black" stroke="black" points="3338.65,-183.95 3347.76,-178.54 3337.26,-177.09 3338.65,-183.95"/>
<text text-anchor="middle" x="3334.94" y="-194.7" font-family="MicrosoftYaHei" font-size="14.00">&gt;0.5</text>
</g>
<!-- 25 -->
<g id="node26" class="node">
<title>25</title>
<polygon fill="#b30326" stroke="black" points="4315.56,-167.87 4180.31,-167.87 4180.31,-108.12 4315.56,-108.12 4315.56,-167.87"/>
<text text-anchor="start" x="4244.19" y="-150.57" font-family="MicrosoftYaHei" font-size="14.00">1</text>
<text text-anchor="start" x="4188.31" y="-133.32" font-family="MicrosoftYaHei" font-size="14.00">friedman_mse=0.0</text>
<text text-anchor="start" x="4238.19" y="-116.07" font-family="MicrosoftYaHei" font-size="14.00">6.0</text>
</g>
<!-- 24&#45;&gt;25 -->
<g id="edge25" class="edge">
<title>24&#45;&gt;25</title>
<path fill="none" stroke="black" d="M4247.94,-216.05C4247.94,-204.12 4247.94,-191.12 4247.94,-179.26"/>
<polygon fill="black" stroke="black" points="4251.44,-179.3 4247.94,-169.3 4244.44,-179.3 4251.44,-179.3"/>
<text text-anchor="middle" x="4230.26" y="-181.3" font-family="MicrosoftYaHei" font-size="14.00">&lt;=0.5</text>
</g>
<!-- 26 -->
<g id="node27" class="node">
<title>26</title>
<ellipse fill="#df644f" stroke="black" cx="4929.94" cy="-138" rx="596.77" ry="42.25"/>
<text text-anchor="start" x="4926.19" y="-150.57" font-family="MicrosoftYaHei" font-size="14.00">3</text>
<text text-anchor="start" x="4862.81" y="-133.32" font-family="MicrosoftYaHei" font-size="14.00">friedman_mse=0.222</text>
<text text-anchor="start" x="4515.96" y="-116.07" font-family="MicrosoftYaHei" font-size="14.00">10.您在高数学习的过程中，如果不使用/少使用答案，您的学习会更好吗？(单选)B.是的，少使用答案更加能锻炼我的解题能力</text>
</g>
<!-- 24&#45;&gt;26 -->
<g id="edge26" class="edge">
<title>24&#45;&gt;26</title>
<path fill="none" stroke="black" d="M4407.84,-229.72C4493.88,-214.77 4601.6,-196.05 4696.82,-179.5"/>
<polygon fill="black" stroke="black" points="4697.22,-182.81 4706.47,-177.65 4696.02,-175.92 4697.22,-182.81"/>
<text text-anchor="middle" x="4693.08" y="-193.42" font-family="MicrosoftYaHei" font-size="14.00">&gt;0.5</text>
</g>
<!-- 19 -->
<g id="node22" class="node">
<title>19</title>
<polygon fill="#e7d6cc" stroke="black" points="2365.31,-59.75 2222.56,-59.75 2222.56,0 2365.31,0 2365.31,-59.75"/>
<text text-anchor="start" x="2286.44" y="-42.45" font-family="MicrosoftYaHei" font-size="14.00">18</text>
<text text-anchor="start" x="2230.56" y="-25.2" font-family="MicrosoftYaHei" font-size="14.00">friedman_mse=2.09</text>
<text text-anchor="start" x="2276.69" y="-7.95" font-family="MicrosoftYaHei" font-size="14.00">3.722</text>
</g>
<!-- 18&#45;&gt;19 -->
<g id="edge21" class="edge">
<title>18&#45;&gt;19</title>
<path fill="none" stroke="black" d="M2343.16,-95.36C2336.37,-86.48 2329.25,-77.14 2322.6,-68.42"/>
<polygon fill="black" stroke="black" points="2324.97,-66.77 2316.13,-60.95 2319.41,-71.02 2324.97,-66.77"/>
<text text-anchor="middle" x="2312.8" y="-80.05" font-family="MicrosoftYaHei" font-size="14.00">&lt;=0.5</text>
</g>
<!-- 20 -->
<g id="node23" class="node">
<title>20</title>
<polygon fill="#f7b295" stroke="black" points="2526.31,-59.75 2383.56,-59.75 2383.56,0 2526.31,0 2526.31,-59.75"/>
<text text-anchor="start" x="2451.19" y="-42.45" font-family="MicrosoftYaHei" font-size="14.00">5</text>
<text text-anchor="start" x="2391.56" y="-25.2" font-family="MicrosoftYaHei" font-size="14.00">friedman_mse=0.24</text>
<text text-anchor="start" x="2445.19" y="-7.95" font-family="MicrosoftYaHei" font-size="14.00">4.4</text>
</g>
<!-- 18&#45;&gt;20 -->
<g id="edge22" class="edge">
<title>18&#45;&gt;20</title>
<path fill="none" stroke="black" d="M2406.33,-95.36C2412.95,-86.57 2419.91,-77.34 2426.43,-68.7"/>
<polygon fill="black" stroke="black" points="2429.8,-71.04 2433.02,-60.95 2424.21,-66.82 2429.8,-71.04"/>
<text text-anchor="middle" x="2436.5" y="-80.03" font-family="MicrosoftYaHei" font-size="14.00">&gt;0.5</text>
</g>
<!-- 22 -->
<g id="node24" class="node">
<title>22</title>
<polygon fill="#3a4cc0" stroke="black" points="3534.56,-59.75 3399.31,-59.75 3399.31,0 3534.56,0 3534.56,-59.75"/>
<text text-anchor="start" x="3463.19" y="-42.45" font-family="MicrosoftYaHei" font-size="14.00">2</text>
<text text-anchor="start" x="3407.31" y="-25.2" font-family="MicrosoftYaHei" font-size="14.00">friedman_mse=0.0</text>
<text text-anchor="start" x="3457.19" y="-7.95" font-family="MicrosoftYaHei" font-size="14.00">1.0</text>
</g>
<!-- 21&#45;&gt;22 -->
<g id="edge23" class="edge">
<title>21&#45;&gt;22</title>
<path fill="none" stroke="black" d="M3513.73,-95.36C3507.35,-86.57 3500.65,-77.34 3494.38,-68.7"/>
<polygon fill="black" stroke="black" points="3496.74,-66.98 3488.03,-60.95 3491.07,-71.1 3496.74,-66.98"/>
<text text-anchor="middle" x="3484.1" y="-79.96" font-family="MicrosoftYaHei" font-size="14.00">&lt;=0.5</text>
</g>
<!-- 23 -->
<g id="node25" class="node">
<title>23</title>
<polygon fill="#f1cab6" stroke="black" points="3687.56,-59.75 3552.31,-59.75 3552.31,0 3687.56,0 3687.56,-59.75"/>
<text text-anchor="start" x="3616.19" y="-42.45" font-family="MicrosoftYaHei" font-size="14.00">4</text>
<text text-anchor="start" x="3560.31" y="-25.2" font-family="MicrosoftYaHei" font-size="14.00">friedman_mse=0.5</text>
<text text-anchor="start" x="3610.19" y="-7.95" font-family="MicrosoftYaHei" font-size="14.00">4.0</text>
</g>
<!-- 21&#45;&gt;23 -->
<g id="edge24" class="edge">
<title>21&#45;&gt;23</title>
<path fill="none" stroke="black" d="M3573.76,-95.36C3580.05,-86.57 3586.66,-77.34 3592.85,-68.7"/>
<polygon fill="black" stroke="black" points="3596.14,-71.11 3599.12,-60.95 3590.45,-67.04 3596.14,-71.11"/>
<text text-anchor="middle" x="3603.2" y="-79.94" font-family="MicrosoftYaHei" font-size="14.00">&gt;0.5</text>
</g>
<!-- 27 -->
<g id="node28" class="node">
<title>27</title>
<polygon fill="#ed8467" stroke="black" points="4920.56,-59.75 4785.31,-59.75 4785.31,0 4920.56,0 4920.56,-59.75"/>
<text text-anchor="start" x="4849.19" y="-42.45" font-family="MicrosoftYaHei" font-size="14.00">2</text>
<text text-anchor="start" x="4793.31" y="-25.2" font-family="MicrosoftYaHei" font-size="14.00">friedman_mse=0.0</text>
<text text-anchor="start" x="4843.19" y="-7.95" font-family="MicrosoftYaHei" font-size="14.00">5.0</text>
</g>
<!-- 26&#45;&gt;27 -->
<g id="edge27" class="edge">
<title>26&#45;&gt;27</title>
<path fill="none" stroke="black" d="M4899.73,-95.36C4893.35,-86.57 4886.65,-77.34 4880.38,-68.7"/>
<polygon fill="black" stroke="black" points="4882.74,-66.98 4874.03,-60.95 4877.07,-71.1 4882.74,-66.98"/>
<text text-anchor="middle" x="4870.1" y="-79.96" font-family="MicrosoftYaHei" font-size="14.00">&lt;=0.5</text>
</g>
<!-- 28 -->
<g id="node29" class="node">
<title>28</title>
<polygon fill="#b30326" stroke="black" points="5073.56,-59.75 4938.31,-59.75 4938.31,0 5073.56,0 5073.56,-59.75"/>
<text text-anchor="start" x="5002.19" y="-42.45" font-family="MicrosoftYaHei" font-size="14.00">1</text>
<text text-anchor="start" x="4946.31" y="-25.2" font-family="MicrosoftYaHei" font-size="14.00">friedman_mse=0.0</text>
<text text-anchor="start" x="4996.19" y="-7.95" font-family="MicrosoftYaHei" font-size="14.00">6.0</text>
</g>
<!-- 26&#45;&gt;28 -->
<g id="edge28" class="edge">
<title>26&#45;&gt;28</title>
<path fill="none" stroke="black" d="M4959.76,-95.36C4966.05,-86.57 4972.66,-77.34 4978.85,-68.7"/>
<polygon fill="black" stroke="black" points="4982.14,-71.11 4985.12,-60.95 4976.45,-67.04 4982.14,-71.11"/>
<text text-anchor="middle" x="4989.2" y="-79.94" font-family="MicrosoftYaHei" font-size="14.00">&gt;0.5</text>
</g>
</g>
</svg>
