<?xml version="1.0" encoding="UTF-8" standalone="no"?>
<!DOCTYPE svg PUBLIC "-//W3C//DTD SVG 1.1//EN"
 "http://www.w3.org/Graphics/SVG/1.1/DTD/svg11.dtd">
<!-- Generated by graphviz version 8.0.5 (20230430.1635)
 -->
<!-- Title: Tree Pages: 1 -->
<svg width="2345pt" height="550pt"
 viewBox="0.00 0.00 2344.66 549.75" xmlns="http://www.w3.org/2000/svg" xmlns:xlink="http://www.w3.org/1999/xlink">
<g id="graph0" class="graph" transform="scale(1 1) rotate(0) translate(4 545.75)">
<title>Tree</title>
<polygon fill="white" stroke="none" points="-4,4 -4,-545.75 2340.66,-545.75 2340.66,4 -4,4"/>
<!-- 0 -->
<g id="node1" class="node">
<title>0</title>
<ellipse fill="#e8d5ca" stroke="black" cx="1355.12" cy="-499.5" rx="251.54" ry="42.25"/>
<text text-anchor="start" x="1347.62" y="-512.07" font-family="MicrosoftYaHei" font-size="14.00">84</text>
<text text-anchor="start" x="1287.99" y="-494.82" font-family="MicrosoftYaHei" font-size="14.00">friedman_mse=1.568</text>
<text text-anchor="start" x="1185.25" y="-477.57" font-family="MicrosoftYaHei" font-size="14.00">17.您觉得作业对您学习这两门课帮助大吗？:微积分</text>
</g>
<!-- 1 -->
<g id="node2" class="node">
<title>1</title>
<ellipse fill="#b4cdfa" stroke="black" cx="1007.12" cy="-379" rx="283.36" ry="42.25"/>
<text text-anchor="start" x="1003.37" y="-391.57" font-family="MicrosoftYaHei" font-size="14.00">6</text>
<text text-anchor="start" x="939.99" y="-374.32" font-family="MicrosoftYaHei" font-size="14.00">friedman_mse=1.472</text>
<text text-anchor="start" x="814.75" y="-357.07" font-family="MicrosoftYaHei" font-size="14.00">21.您认为影响您使用答案习惯的因素有:是否容易获得答案</text>
</g>
<!-- 0&#45;&gt;1 -->
<g id="edge1" class="edge">
<title>0&#45;&gt;1</title>
<path fill="none" stroke="black" d="M1245.49,-461.17C1208.54,-448.59 1167.09,-434.47 1129.25,-421.59"/>
<polygon fill="black" stroke="black" points="1130.79,-418.07 1120.19,-418.16 1128.53,-424.7 1130.79,-418.07"/>
<text text-anchor="middle" x="1130.23" y="-435.92" font-family="MicrosoftYaHei" font-size="14.00">&lt;=3.5</text>
</g>
<!-- 8 -->
<g id="node3" class="node">
<title>8</title>
<ellipse fill="#ecd2c4" stroke="black" cx="1703.12" cy="-379" rx="394.72" ry="42.25"/>
<text text-anchor="start" x="1695.62" y="-391.57" font-family="MicrosoftYaHei" font-size="14.00">78</text>
<text text-anchor="start" x="1635.99" y="-374.32" font-family="MicrosoftYaHei" font-size="14.00">friedman_mse=1.506</text>
<text text-anchor="start" x="1432.01" y="-357.07" font-family="MicrosoftYaHei" font-size="14.00">8.做高数或数分题目时，若您需要使用答案，一般如何获取答案？:我从不使用答案</text>
</g>
<!-- 0&#45;&gt;8 -->
<g id="edge2" class="edge">
<title>0&#45;&gt;8</title>
<path fill="none" stroke="black" d="M1464.75,-461.17C1500.08,-449.14 1539.53,-435.7 1576.01,-423.28"/>
<polygon fill="black" stroke="black" points="1576.87,-426.34 1585.21,-419.81 1574.62,-419.72 1576.87,-426.34"/>
<text text-anchor="middle" x="1575.18" y="-437.56" font-family="MicrosoftYaHei" font-size="14.00">&gt;3.5</text>
</g>
<!-- 2 -->
<g id="node4" class="node">
<title>2</title>
<ellipse fill="#5876e2" stroke="black" cx="384.12" cy="-258.5" rx="384.12" ry="42.25"/>
<text text-anchor="start" x="380.37" y="-271.07" font-family="MicrosoftYaHei" font-size="14.00">2</text>
<text text-anchor="start" x="320.74" y="-253.82" font-family="MicrosoftYaHei" font-size="14.00">friedman_mse=0.25</text>
<text text-anchor="start" x="120.51" y="-236.57" font-family="MicrosoftYaHei" font-size="14.00">8.做高数或数分题目时，若您需要使用答案，一般如何获取答案？:与同学对答案</text>
</g>
<!-- 1&#45;&gt;2 -->
<g id="edge3" class="edge">
<title>1&#45;&gt;2</title>
<path fill="none" stroke="black" d="M834.41,-345.15C757.04,-330.43 665.31,-312.98 584.9,-297.69"/>
<polygon fill="black" stroke="black" points="585.61,-294.07 575.13,-295.64 584.3,-300.95 585.61,-294.07"/>
<text text-anchor="middle" x="588.2" y="-310.14" font-family="MicrosoftYaHei" font-size="14.00">否</text>
</g>
<!-- 5 -->
<g id="node5" class="node">
<title>5</title>
<ellipse fill="#dddcdb" stroke="black" cx="1027.12" cy="-258.5" rx="240.94" ry="42.25"/>
<text text-anchor="start" x="1023.37" y="-271.07" font-family="MicrosoftYaHei" font-size="14.00">4</text>
<text text-anchor="start" x="963.74" y="-253.82" font-family="MicrosoftYaHei" font-size="14.00">friedman_mse=0.75</text>
<text text-anchor="start" x="864.75" y="-236.57" font-family="MicrosoftYaHei" font-size="14.00">21.您认为影响您使用答案习惯的因素有:课程难度</text>
</g>
<!-- 1&#45;&gt;5 -->
<g id="edge4" class="edge">
<title>1&#45;&gt;5</title>
<path fill="none" stroke="black" d="M1014.11,-336.55C1015.46,-328.57 1016.89,-320.11 1018.28,-311.84"/>
<polygon fill="black" stroke="black" points="1021.88,-312.56 1020.09,-302.12 1014.98,-311.4 1021.88,-312.56"/>
<text text-anchor="middle" x="1034.58" y="-315.32" font-family="MicrosoftYaHei" font-size="14.00">是</text>
</g>
<!-- 9 -->
<g id="node10" class="node">
<title>9</title>
<ellipse fill="#ead3c7" stroke="black" cx="1683.12" cy="-258.5" rx="357.6" ry="42.25"/>
<text text-anchor="start" x="1675.62" y="-271.07" font-family="MicrosoftYaHei" font-size="14.00">77</text>
<text text-anchor="start" x="1615.99" y="-253.82" font-family="MicrosoftYaHei" font-size="14.00">friedman_mse=1.463</text>
<text text-anchor="start" x="1438.25" y="-236.57" font-family="MicrosoftYaHei" font-size="14.00">10.您在高数学习的过程中，如果不使用/少使用答案，您的学习会更好吗？</text>
</g>
<!-- 8&#45;&gt;9 -->
<g id="edge9" class="edge">
<title>8&#45;&gt;9</title>
<path fill="none" stroke="black" d="M1696.12,-336.55C1694.78,-328.57 1693.35,-320.11 1691.95,-311.84"/>
<polygon fill="black" stroke="black" points="1695.26,-311.4 1690.14,-302.12 1688.36,-312.56 1695.26,-311.4"/>
<text text-anchor="middle" x="1675.65" y="-315.32" font-family="MicrosoftYaHei" font-size="14.00">否</text>
</g>
<!-- 16 -->
<g id="node11" class="node">
<title>16</title>
<polygon fill="#b30326" stroke="black" points="2193.74,-288.37 2058.49,-288.37 2058.49,-228.62 2193.74,-228.62 2193.74,-288.37"/>
<text text-anchor="start" x="2122.37" y="-271.07" font-family="MicrosoftYaHei" font-size="14.00">1</text>
<text text-anchor="start" x="2066.49" y="-253.82" font-family="MicrosoftYaHei" font-size="14.00">friedman_mse=0.0</text>
<text text-anchor="start" x="2116.37" y="-236.57" font-family="MicrosoftYaHei" font-size="14.00">6.0</text>
</g>
<!-- 8&#45;&gt;16 -->
<g id="edge10" class="edge">
<title>8&#45;&gt;16</title>
<path fill="none" stroke="black" d="M1907.26,-342.47C1954.89,-331.48 2004.89,-317.68 2050.12,-300.75 2055.79,-298.62 2061.57,-296.15 2067.27,-293.47"/>
<polygon fill="black" stroke="black" points="2068.32,-296.37 2075.76,-288.83 2065.24,-290.08 2068.32,-296.37"/>
<text text-anchor="middle" x="2068.65" y="-306.3" font-family="MicrosoftYaHei" font-size="14.00">是</text>
</g>
<!-- 3 -->
<g id="node6" class="node">
<title>3</title>
<polygon fill="#7b9ef8" stroke="black" points="375.74,-167.87 240.49,-167.87 240.49,-108.12 375.74,-108.12 375.74,-167.87"/>
<text text-anchor="start" x="304.37" y="-150.57" font-family="MicrosoftYaHei" font-size="14.00">1</text>
<text text-anchor="start" x="248.49" y="-133.32" font-family="MicrosoftYaHei" font-size="14.00">friedman_mse=0.0</text>
<text text-anchor="start" x="298.37" y="-116.07" font-family="MicrosoftYaHei" font-size="14.00">2.0</text>
</g>
<!-- 2&#45;&gt;3 -->
<g id="edge5" class="edge">
<title>2&#45;&gt;3</title>
<path fill="none" stroke="black" d="M357.54,-216.05C349.49,-203.5 340.68,-189.78 332.77,-177.43"/>
<polygon fill="black" stroke="black" points="335.26,-175.83 326.91,-169.3 329.36,-179.61 335.26,-175.83"/>
<text text-anchor="middle" x="321.57" y="-186.55" font-family="MicrosoftYaHei" font-size="14.00">否</text>
</g>
<!-- 4 -->
<g id="node7" class="node">
<title>4</title>
<polygon fill="#3a4cc0" stroke="black" points="528.74,-167.87 393.49,-167.87 393.49,-108.12 528.74,-108.12 528.74,-167.87"/>
<text text-anchor="start" x="457.37" y="-150.57" font-family="MicrosoftYaHei" font-size="14.00">1</text>
<text text-anchor="start" x="401.49" y="-133.32" font-family="MicrosoftYaHei" font-size="14.00">friedman_mse=0.0</text>
<text text-anchor="start" x="451.37" y="-116.07" font-family="MicrosoftYaHei" font-size="14.00">1.0</text>
</g>
<!-- 2&#45;&gt;4 -->
<g id="edge6" class="edge">
<title>2&#45;&gt;4</title>
<path fill="none" stroke="black" d="M411.05,-216.05C419.2,-203.5 428.12,-189.78 436.15,-177.43"/>
<polygon fill="black" stroke="black" points="439.56,-179.59 442.08,-169.3 433.69,-175.78 439.56,-179.59"/>
<text text-anchor="middle" x="447.27" y="-186.58" font-family="MicrosoftYaHei" font-size="14.00">是</text>
</g>
<!-- 6 -->
<g id="node8" class="node">
<title>6</title>
<polygon fill="#ed8467" stroke="black" points="1017.74,-167.87 882.49,-167.87 882.49,-108.12 1017.74,-108.12 1017.74,-167.87"/>
<text text-anchor="start" x="946.37" y="-150.57" font-family="MicrosoftYaHei" font-size="14.00">1</text>
<text text-anchor="start" x="890.49" y="-133.32" font-family="MicrosoftYaHei" font-size="14.00">friedman_mse=0.0</text>
<text text-anchor="start" x="940.37" y="-116.07" font-family="MicrosoftYaHei" font-size="14.00">5.0</text>
</g>
<!-- 5&#45;&gt;6 -->
<g id="edge7" class="edge">
<title>5&#45;&gt;6</title>
<path fill="none" stroke="black" d="M1000.19,-216.05C992.03,-203.5 983.11,-189.78 975.09,-177.43"/>
<polygon fill="black" stroke="black" points="977.54,-175.78 969.16,-169.3 971.67,-179.59 977.54,-175.78"/>
<text text-anchor="middle" x="963.97" y="-186.58" font-family="MicrosoftYaHei" font-size="14.00">否</text>
</g>
<!-- 7 -->
<g id="node9" class="node">
<title>7</title>
<polygon fill="#c0d3f5" stroke="black" points="1170.74,-167.87 1035.49,-167.87 1035.49,-108.12 1170.74,-108.12 1170.74,-167.87"/>
<text text-anchor="start" x="1099.37" y="-150.57" font-family="MicrosoftYaHei" font-size="14.00">3</text>
<text text-anchor="start" x="1043.49" y="-133.32" font-family="MicrosoftYaHei" font-size="14.00">friedman_mse=0.0</text>
<text text-anchor="start" x="1093.37" y="-116.07" font-family="MicrosoftYaHei" font-size="14.00">3.0</text>
</g>
<!-- 5&#45;&gt;7 -->
<g id="edge8" class="edge">
<title>5&#45;&gt;7</title>
<path fill="none" stroke="black" d="M1053.7,-216.05C1061.75,-203.5 1070.55,-189.78 1078.47,-177.43"/>
<polygon fill="black" stroke="black" points="1081.87,-179.61 1084.33,-169.3 1075.98,-175.83 1081.87,-179.61"/>
<text text-anchor="middle" x="1089.66" y="-186.55" font-family="MicrosoftYaHei" font-size="14.00">是</text>
</g>
<!-- 10 -->
<g id="node12" class="node">
<title>10</title>
<ellipse fill="#e7d6cd" stroke="black" cx="1575.12" cy="-138" rx="240.94" ry="42.25"/>
<text text-anchor="start" x="1567.62" y="-150.57" font-family="MicrosoftYaHei" font-size="14.00">66</text>
<text text-anchor="start" x="1507.99" y="-133.32" font-family="MicrosoftYaHei" font-size="14.00">friedman_mse=1.514</text>
<text text-anchor="start" x="1412.75" y="-116.07" font-family="MicrosoftYaHei" font-size="14.00">21.您认为影响您使用答案习惯的因素有:课程类别</text>
</g>
<!-- 9&#45;&gt;10 -->
<g id="edge11" class="edge">
<title>9&#45;&gt;10</title>
<path fill="none" stroke="black" d="M1645.34,-216.05C1637.16,-207.07 1628.42,-197.49 1620,-188.24"/>
<polygon fill="black" stroke="black" points="1623.01,-186.25 1613.69,-181.22 1617.84,-190.97 1623.01,-186.25"/>
<text text-anchor="middle" x="1611.53" y="-200.52" font-family="MicrosoftYaHei" font-size="14.00">不，答案促进思考, 是，少用答案更好</text>
</g>
<!-- 13 -->
<g id="node13" class="node">
<title>13</title>
<ellipse fill="#f7b598" stroke="black" cx="2085.12" cy="-138" rx="251.54" ry="42.25"/>
<text text-anchor="start" x="2077.62" y="-150.57" font-family="MicrosoftYaHei" font-size="14.00">11</text>
<text text-anchor="start" x="2017.99" y="-133.32" font-family="MicrosoftYaHei" font-size="14.00">friedman_mse=0.777</text>
<text text-anchor="start" x="1915.25" y="-116.07" font-family="MicrosoftYaHei" font-size="14.00">21.您认为影响您使用答案习惯的因素有:作业任务量</text>
</g>
<!-- 9&#45;&gt;13 -->
<g id="edge12" class="edge">
<title>9&#45;&gt;13</title>
<path fill="none" stroke="black" d="M1814.47,-218.78C1858.47,-205.81 1907.55,-191.34 1951.71,-178.32"/>
<polygon fill="black" stroke="black" points="1952.63,-181.41 1961.23,-175.22 1950.65,-174.69 1952.63,-181.41"/>
<text text-anchor="middle" x="1950.27" y="-191" font-family="MicrosoftYaHei" font-size="14.00">其他</text>
</g>
<!-- 11 -->
<g id="node14" class="node">
<title>11</title>
<polygon fill="#edd0c1" stroke="black" points="1568.24,-59.75 1417.99,-59.75 1417.99,0 1568.24,0 1568.24,-59.75"/>
<text text-anchor="start" x="1485.62" y="-42.45" font-family="MicrosoftYaHei" font-size="14.00">45</text>
<text text-anchor="start" x="1425.99" y="-25.2" font-family="MicrosoftYaHei" font-size="14.00">friedman_mse=1.449</text>
<text text-anchor="start" x="1475.87" y="-7.95" font-family="MicrosoftYaHei" font-size="14.00">3.867</text>
</g>
<!-- 10&#45;&gt;11 -->
<g id="edge13" class="edge">
<title>10&#45;&gt;11</title>
<path fill="none" stroke="black" d="M1543.18,-95.67C1536.3,-86.76 1529.06,-77.39 1522.29,-68.63"/>
<polygon fill="black" stroke="black" points="1524.6,-66.89 1515.71,-61.12 1519.06,-71.17 1524.6,-66.89"/>
<text text-anchor="middle" x="1512.53" y="-78.74" font-family="MicrosoftYaHei" font-size="14.00">否</text>
</g>
<!-- 12 -->
<g id="node15" class="node">
<title>12</title>
<polygon fill="#d3dbe6" stroke="black" points="1729.49,-59.75 1586.74,-59.75 1586.74,0 1729.49,0 1729.49,-59.75"/>
<text text-anchor="start" x="1650.62" y="-42.45" font-family="MicrosoftYaHei" font-size="14.00">21</text>
<text text-anchor="start" x="1594.74" y="-25.2" font-family="MicrosoftYaHei" font-size="14.00">friedman_mse=1.46</text>
<text text-anchor="start" x="1640.87" y="-7.95" font-family="MicrosoftYaHei" font-size="14.00">3.333</text>
</g>
<!-- 10&#45;&gt;12 -->
<g id="edge14" class="edge">
<title>10&#45;&gt;12</title>
<path fill="none" stroke="black" d="M1607.45,-95.67C1614.41,-86.76 1621.74,-77.39 1628.59,-68.63"/>
<polygon fill="black" stroke="black" points="1631.85,-71.15 1635.25,-61.12 1626.33,-66.84 1631.85,-71.15"/>
<text text-anchor="middle" x="1638.28" y="-78.76" font-family="MicrosoftYaHei" font-size="14.00">是</text>
</g>
<!-- 14 -->
<g id="node16" class="node">
<title>14</title>
<polygon fill="#ed8467" stroke="black" points="2077.24,-59.75 1926.99,-59.75 1926.99,0 2077.24,0 2077.24,-59.75"/>
<text text-anchor="start" x="1998.37" y="-42.45" font-family="MicrosoftYaHei" font-size="14.00">6</text>
<text text-anchor="start" x="1934.99" y="-25.2" font-family="MicrosoftYaHei" font-size="14.00">friedman_mse=0.333</text>
<text text-anchor="start" x="1992.37" y="-7.95" font-family="MicrosoftYaHei" font-size="14.00">5.0</text>
</g>
<!-- 13&#45;&gt;14 -->
<g id="edge15" class="edge">
<title>13&#45;&gt;14</title>
<path fill="none" stroke="black" d="M2052.79,-95.67C2045.83,-86.76 2038.5,-77.39 2031.65,-68.63"/>
<polygon fill="black" stroke="black" points="2033.9,-66.84 2024.99,-61.12 2028.39,-71.15 2033.9,-66.84"/>
<text text-anchor="middle" x="2021.95" y="-78.76" font-family="MicrosoftYaHei" font-size="14.00">否</text>
</g>
<!-- 15 -->
<g id="node17" class="node">
<title>15</title>
<polygon fill="#e2d9d4" stroke="black" points="2238.49,-59.75 2095.74,-59.75 2095.74,0 2238.49,0 2238.49,-59.75"/>
<text text-anchor="start" x="2163.37" y="-42.45" font-family="MicrosoftYaHei" font-size="14.00">5</text>
<text text-anchor="start" x="2103.74" y="-25.2" font-family="MicrosoftYaHei" font-size="14.00">friedman_mse=0.24</text>
<text text-anchor="start" x="2157.37" y="-7.95" font-family="MicrosoftYaHei" font-size="14.00">3.6</text>
</g>
<!-- 13&#45;&gt;15 -->
<g id="edge16" class="edge">
<title>13&#45;&gt;15</title>
<path fill="none" stroke="black" d="M2117.06,-95.67C2123.94,-86.76 2131.18,-77.39 2137.94,-68.63"/>
<polygon fill="black" stroke="black" points="2141.18,-71.17 2144.52,-61.12 2135.64,-66.89 2141.18,-71.17"/>
<text text-anchor="middle" x="2147.7" y="-78.74" font-family="MicrosoftYaHei" font-size="14.00">是</text>
</g>
</g>
</svg>
