<?xml version="1.0" encoding="UTF-8" standalone="no"?>
<!DOCTYPE svg PUBLIC "-//W3C//DTD SVG 1.1//EN"
 "http://www.w3.org/Graphics/SVG/1.1/DTD/svg11.dtd">
<!-- Generated by graphviz version 8.0.5 (20230430.1635)
 -->
<!-- Title: Tree Pages: 1 -->
<svg width="4136pt" height="550pt"
 viewBox="0.00 0.00 4135.64 549.75" xmlns="http://www.w3.org/2000/svg" xmlns:xlink="http://www.w3.org/1999/xlink">
<g id="graph0" class="graph" transform="scale(1 1) rotate(0) translate(4 545.75)">
<title>Tree</title>
<polygon fill="white" stroke="none" points="-4,4 -4,-545.75 4131.64,-545.75 4131.64,4 -4,4"/>
<!-- 0 -->
<g id="node1" class="node">
<title>0</title>
<ellipse fill="#f1cab6" stroke="black" cx="1993.01" cy="-499.5" rx="286.01" ry="42.25"/>
<text text-anchor="start" x="1985.51" y="-512.07" font-family="MicrosoftYaHei" font-size="14.00">84</text>
<text text-anchor="start" x="1925.89" y="-494.82" font-family="MicrosoftYaHei" font-size="14.00">friedman_mse=1.833</text>
<text text-anchor="start" x="1798.77" y="-477.57" font-family="MicrosoftYaHei" font-size="14.00">13.您修读计算机类基础课（即JAVA，C等）这门课的原因是</text>
</g>
<!-- 1 -->
<g id="node2" class="node">
<title>1</title>
<ellipse fill="#f7b295" stroke="black" cx="1716.01" cy="-379" rx="141.77" ry="42.25"/>
<text text-anchor="start" x="1708.51" y="-391.57" font-family="MicrosoftYaHei" font-size="14.00">64</text>
<text text-anchor="start" x="1648.89" y="-374.32" font-family="MicrosoftYaHei" font-size="14.00">friedman_mse=0.991</text>
<text text-anchor="start" x="1623.77" y="-357.07" font-family="MicrosoftYaHei" font-size="14.00">12.您之前有编程的基础吗？</text>
</g>
<!-- 0&#45;&gt;1 -->
<g id="edge1" class="edge">
<title>0&#45;&gt;1</title>
<path fill="none" stroke="black" d="M1900.78,-459.04C1870.1,-445.92 1836.01,-431.33 1805.54,-418.3"/>
<polygon fill="black" stroke="black" points="1807.36,-414.84 1796.78,-414.12 1804.6,-421.28 1807.36,-414.84"/>
<text text-anchor="middle" x="1805.08" y="-432.65" font-family="MicrosoftYaHei" font-size="14.00">不选A.只因学校要求</text>
</g>
<!-- 16 -->
<g id="node3" class="node">
<title>16</title>
<ellipse fill="#acc8fc" stroke="black" cx="2744.01" cy="-379" rx="283.36" ry="42.25"/>
<text text-anchor="start" x="2736.51" y="-391.57" font-family="MicrosoftYaHei" font-size="14.00">20</text>
<text text-anchor="start" x="2680.64" y="-374.32" font-family="MicrosoftYaHei" font-size="14.00">friedman_mse=2.31</text>
<text text-anchor="start" x="2551.65" y="-357.07" font-family="MicrosoftYaHei" font-size="14.00">21.您认为影响您使用答案习惯的因素有:是否容易获得答案</text>
</g>
<!-- 0&#45;&gt;16 -->
<g id="edge2" class="edge">
<title>0&#45;&gt;16</title>
<path fill="none" stroke="black" d="M2186.41,-467.98C2295.14,-450.82 2430.75,-429.43 2541,-412.03"/>
<polygon fill="black" stroke="black" points="2541.26,-415.38 2550.59,-410.36 2540.17,-408.46 2541.26,-415.38"/>
<text text-anchor="middle" x="2536.89" y="-425.9" font-family="MicrosoftYaHei" font-size="14.00">A.只因学校要求</text>
</g>
<!-- 2 -->
<g id="node4" class="node">
<title>2</title>
<ellipse fill="#f5bfa5" stroke="black" cx="876.01" cy="-258.5" rx="240.94" ry="42.25"/>
<text text-anchor="start" x="868.51" y="-271.07" font-family="MicrosoftYaHei" font-size="14.00">53</text>
<text text-anchor="start" x="808.89" y="-253.82" font-family="MicrosoftYaHei" font-size="14.00">friedman_mse=0.844</text>
<text text-anchor="start" x="713.65" y="-236.57" font-family="MicrosoftYaHei" font-size="14.00">17.您觉得作业对您学习这两门课帮助大吗？:编程</text>
</g>
<!-- 1&#45;&gt;2 -->
<g id="edge3" class="edge">
<title>1&#45;&gt;2</title>
<path fill="none" stroke="black" d="M1588.89,-360.07C1451.92,-340.74 1232.21,-309.75 1072.87,-287.27"/>
<polygon fill="black" stroke="black" points="1073.37,-283.67 1062.98,-285.73 1072.4,-290.6 1073.37,-283.67"/>
<text text-anchor="middle" x="1077.02" y="-301.03" font-family="MicrosoftYaHei" font-size="14.00">B.仅仅简单了解, C.没有编程基础, nan</text>
</g>
<!-- 9 -->
<g id="node5" class="node">
<title>9</title>
<ellipse fill="#dd604c" stroke="black" cx="1716.01" cy="-258.5" rx="240.94" ry="42.25"/>
<text text-anchor="start" x="1708.51" y="-271.07" font-family="MicrosoftYaHei" font-size="14.00">11</text>
<text text-anchor="start" x="1648.89" y="-253.82" font-family="MicrosoftYaHei" font-size="14.00">friedman_mse=0.595</text>
<text text-anchor="start" x="1553.65" y="-236.57" font-family="MicrosoftYaHei" font-size="14.00">17.您觉得作业对您学习这两门课帮助大吗？:编程</text>
</g>
<!-- 1&#45;&gt;9 -->
<g id="edge4" class="edge">
<title>1&#45;&gt;9</title>
<path fill="none" stroke="black" d="M1716.01,-336.55C1716.01,-328.66 1716.01,-320.3 1716.01,-312.12"/>
<polygon fill="black" stroke="black" points="1719.51,-312.12 1716.01,-302.12 1712.51,-312.12 1719.51,-312.12"/>
<text text-anchor="middle" x="1733.69" y="-314.12" font-family="MicrosoftYaHei" font-size="14.00">A.接触过竞赛</text>
</g>
<!-- 17 -->
<g id="node18" class="node">
<title>17</title>
<ellipse fill="#6f91f2" stroke="black" cx="2744.01" cy="-258.5" rx="240.94" ry="42.25"/>
<text text-anchor="start" x="2740.26" y="-271.07" font-family="MicrosoftYaHei" font-size="14.00">6</text>
<text text-anchor="start" x="2676.89" y="-253.82" font-family="MicrosoftYaHei" font-size="14.00">friedman_mse=0.806</text>
<text text-anchor="start" x="2581.65" y="-236.57" font-family="MicrosoftYaHei" font-size="14.00">17.您觉得作业对您学习这两门课帮助大吗？:编程</text>
</g>
<!-- 16&#45;&gt;17 -->
<g id="edge17" class="edge">
<title>16&#45;&gt;17</title>
<path fill="none" stroke="black" d="M2744.01,-336.55C2744.01,-328.66 2744.01,-320.3 2744.01,-312.12"/>
<polygon fill="black" stroke="black" points="2747.51,-312.12 2744.01,-302.12 2740.51,-312.12 2747.51,-312.12"/>
<text text-anchor="middle" x="2726.34" y="-312.62" font-family="MicrosoftYaHei" font-size="14.00">否</text>
</g>
<!-- 22 -->
<g id="node19" class="node">
<title>22</title>
<ellipse fill="#c5d5f2" stroke="black" cx="3606.01" cy="-258.5" rx="468.44" ry="42.25"/>
<text text-anchor="start" x="3598.51" y="-271.07" font-family="MicrosoftYaHei" font-size="14.00">14</text>
<text text-anchor="start" x="3538.89" y="-253.82" font-family="MicrosoftYaHei" font-size="14.00">friedman_mse=2.495</text>
<text text-anchor="start" x="3282.78" y="-236.57" font-family="MicrosoftYaHei" font-size="14.00">14.做计算机类基础课的作业时，若您需要使用答案，一般如何获取答案？:其他____{fillblank&#45;9b41}</text>
</g>
<!-- 16&#45;&gt;22 -->
<g id="edge18" class="edge">
<title>16&#45;&gt;22</title>
<path fill="none" stroke="black" d="M2950.21,-349.65C3067.56,-333.52 3215.8,-313.14 3341.63,-295.84"/>
<polygon fill="black" stroke="black" points="3341.76,-299.22 3351.19,-294.39 3340.81,-292.29 3341.76,-299.22"/>
<text text-anchor="middle" x="3337.08" y="-308.14" font-family="MicrosoftYaHei" font-size="14.00">是</text>
</g>
<!-- 3 -->
<g id="node6" class="node">
<title>3</title>
<ellipse fill="#df644f" stroke="black" cx="286.01" cy="-138" rx="286.01" ry="42.25"/>
<text text-anchor="start" x="282.26" y="-150.57" font-family="MicrosoftYaHei" font-size="14.00">3</text>
<text text-anchor="start" x="218.89" y="-133.32" font-family="MicrosoftYaHei" font-size="14.00">friedman_mse=0.222</text>
<text text-anchor="start" x="91.77" y="-116.07" font-family="MicrosoftYaHei" font-size="14.00">13.您修读计算机类基础课（即JAVA，C等）这门课的原因是</text>
</g>
<!-- 2&#45;&gt;3 -->
<g id="edge5" class="edge">
<title>2&#45;&gt;3</title>
<path fill="none" stroke="black" d="M719.45,-226.05C640.8,-210.26 545.16,-191.05 463.76,-174.7"/>
<polygon fill="black" stroke="black" points="464.89,-171.15 454.39,-172.62 463.51,-178.02 464.89,-171.15"/>
<text text-anchor="middle" x="467.24" y="-188.75" font-family="MicrosoftYaHei" font-size="14.00">&lt;=3.5</text>
</g>
<!-- 6 -->
<g id="node7" class="node">
<title>6</title>
<ellipse fill="#f4c3ab" stroke="black" cx="876.01" cy="-138" rx="286.01" ry="42.25"/>
<text text-anchor="start" x="868.51" y="-150.57" font-family="MicrosoftYaHei" font-size="14.00">50</text>
<text text-anchor="start" x="816.39" y="-133.32" font-family="MicrosoftYaHei" font-size="14.00">friedman_mse=0.8</text>
<text text-anchor="start" x="681.77" y="-116.07" font-family="MicrosoftYaHei" font-size="14.00">13.您修读计算机类基础课（即JAVA，C等）这门课的原因是</text>
</g>
<!-- 2&#45;&gt;6 -->
<g id="edge6" class="edge">
<title>2&#45;&gt;6</title>
<path fill="none" stroke="black" d="M876.01,-216.05C876.01,-208.16 876.01,-199.8 876.01,-191.62"/>
<polygon fill="black" stroke="black" points="879.51,-191.62 876.01,-181.62 872.51,-191.62 879.51,-191.62"/>
<text text-anchor="middle" x="893.69" y="-193.62" font-family="MicrosoftYaHei" font-size="14.00">&gt;3.5</text>
</g>
<!-- 10 -->
<g id="node12" class="node">
<title>10</title>
<ellipse fill="#c53233" stroke="black" cx="1375.01" cy="-138" rx="194.8" ry="42.25"/>
<text text-anchor="start" x="1371.26" y="-150.57" font-family="MicrosoftYaHei" font-size="14.00">8</text>
<text text-anchor="start" x="1307.89" y="-133.32" font-family="MicrosoftYaHei" font-size="14.00">friedman_mse=0.188</text>
<text text-anchor="start" x="1245.27" y="-116.07" font-family="MicrosoftYaHei" font-size="14.00">11.请问您上的计算机编程基础课程是？</text>
</g>
<!-- 9&#45;&gt;10 -->
<g id="edge11" class="edge">
<title>9&#45;&gt;10</title>
<path fill="none" stroke="black" d="M1609.05,-220.33C1570.33,-206.87 1526.49,-191.64 1487.32,-178.03"/>
<polygon fill="black" stroke="black" points="1488.53,-174.39 1477.93,-174.42 1486.23,-181.01 1488.53,-174.39"/>
<text text-anchor="middle" x="1487.83" y="-192.24" font-family="MicrosoftYaHei" font-size="14.00">&lt;=5.5</text>
</g>
<!-- 13 -->
<g id="node13" class="node">
<title>13</title>
<ellipse fill="#f6b79c" stroke="black" cx="2056.01" cy="-138" rx="468.44" ry="42.25"/>
<text text-anchor="start" x="2052.26" y="-150.57" font-family="MicrosoftYaHei" font-size="14.00">3</text>
<text text-anchor="start" x="1988.89" y="-133.32" font-family="MicrosoftYaHei" font-size="14.00">friedman_mse=0.222</text>
<text text-anchor="start" x="1732.78" y="-116.07" font-family="MicrosoftYaHei" font-size="14.00">14.做计算机类基础课的作业时，若您需要使用答案，一般如何获取答案？:其他____{fillblank&#45;9b41}</text>
</g>
<!-- 9&#45;&gt;13 -->
<g id="edge12" class="edge">
<title>9&#45;&gt;13</title>
<path fill="none" stroke="black" d="M1822.66,-220.33C1856.69,-208.47 1894.68,-195.23 1929.95,-182.94"/>
<polygon fill="black" stroke="black" points="1931.02,-185.92 1939.31,-179.32 1928.72,-179.31 1931.02,-185.92"/>
<text text-anchor="middle" x="1929.44" y="-197.16" font-family="MicrosoftYaHei" font-size="14.00">&gt;5.5</text>
</g>
<!-- 4 -->
<g id="node8" class="node">
<title>4</title>
<polygon fill="#ed8467" stroke="black" points="277.64,-59.75 142.39,-59.75 142.39,0 277.64,0 277.64,-59.75"/>
<text text-anchor="start" x="206.26" y="-42.45" font-family="MicrosoftYaHei" font-size="14.00">2</text>
<text text-anchor="start" x="150.39" y="-25.2" font-family="MicrosoftYaHei" font-size="14.00">friedman_mse=0.0</text>
<text text-anchor="start" x="200.26" y="-7.95" font-family="MicrosoftYaHei" font-size="14.00">5.0</text>
</g>
<!-- 3&#45;&gt;4 -->
<g id="edge7" class="edge">
<title>3&#45;&gt;4</title>
<path fill="none" stroke="black" d="M256.41,-95.67C250.1,-86.85 243.47,-77.59 237.25,-68.91"/>
<polygon fill="black" stroke="black" points="239.62,-67.21 230.95,-61.12 233.93,-71.28 239.62,-67.21"/>
<text text-anchor="middle" x="226.87" y="-80.11" font-family="MicrosoftYaHei" font-size="14.00">C.未来工作必备, D.感兴趣, E.没考虑过, nan</text>
</g>
<!-- 5 -->
<g id="node9" class="node">
<title>5</title>
<polygon fill="#b30326" stroke="black" points="430.64,-59.75 295.39,-59.75 295.39,0 430.64,0 430.64,-59.75"/>
<text text-anchor="start" x="359.26" y="-42.45" font-family="MicrosoftYaHei" font-size="14.00">1</text>
<text text-anchor="start" x="303.39" y="-25.2" font-family="MicrosoftYaHei" font-size="14.00">friedman_mse=0.0</text>
<text text-anchor="start" x="353.26" y="-7.95" font-family="MicrosoftYaHei" font-size="14.00">6.0</text>
</g>
<!-- 3&#45;&gt;5 -->
<g id="edge8" class="edge">
<title>3&#45;&gt;5</title>
<path fill="none" stroke="black" d="M316,-95.67C322.4,-86.85 329.12,-77.59 335.42,-68.91"/>
<polygon fill="black" stroke="black" points="338.76,-71.26 341.8,-61.12 333.09,-67.15 338.76,-71.26"/>
<text text-anchor="middle" x="345.72" y="-80.13" font-family="MicrosoftYaHei" font-size="14.00">B.认为课程有用</text>
</g>
<!-- 7 -->
<g id="node10" class="node">
<title>7</title>
<polygon fill="#f3c6b0" stroke="black" points="868.14,-59.75 717.89,-59.75 717.89,0 868.14,0 868.14,-59.75"/>
<text text-anchor="start" x="785.51" y="-42.45" font-family="MicrosoftYaHei" font-size="14.00">48</text>
<text text-anchor="start" x="725.89" y="-25.2" font-family="MicrosoftYaHei" font-size="14.00">friedman_mse=0.743</text>
<text text-anchor="start" x="775.76" y="-7.95" font-family="MicrosoftYaHei" font-size="14.00">4.083</text>
</g>
<!-- 6&#45;&gt;7 -->
<g id="edge9" class="edge">
<title>6&#45;&gt;7</title>
<path fill="none" stroke="black" d="M843.69,-95.67C836.72,-86.76 829.39,-77.39 822.54,-68.63"/>
<polygon fill="black" stroke="black" points="824.8,-66.84 815.88,-61.12 819.29,-71.15 824.8,-66.84"/>
<text text-anchor="middle" x="812.85" y="-80.26" font-family="MicrosoftYaHei" font-size="14.00">B.认为课程有用, C.未来工作必备, E.没考虑过, nan</text>
</g>
<!-- 8 -->
<g id="node11" class="node">
<title>8</title>
<polygon fill="#d65243" stroke="black" points="1029.39,-59.75 886.64,-59.75 886.64,0 1029.39,0 1029.39,-59.75"/>
<text text-anchor="start" x="954.26" y="-42.45" font-family="MicrosoftYaHei" font-size="14.00">2</text>
<text text-anchor="start" x="894.64" y="-25.2" font-family="MicrosoftYaHei" font-size="14.00">friedman_mse=0.25</text>
<text text-anchor="start" x="948.26" y="-7.95" font-family="MicrosoftYaHei" font-size="14.00">5.5</text>
</g>
<!-- 6&#45;&gt;8 -->
<g id="edge10" class="edge">
<title>6&#45;&gt;8</title>
<path fill="none" stroke="black" d="M907.95,-95.67C914.83,-86.76 922.07,-77.39 928.84,-68.63"/>
<polygon fill="black" stroke="black" points="932.08,-71.17 935.42,-61.12 926.54,-66.89 932.08,-71.17"/>
<text text-anchor="middle" x="938.6" y="-80.24" font-family="MicrosoftYaHei" font-size="14.00">D.感兴趣</text>
</g>
<!-- 11 -->
<g id="node14" class="node">
<title>11</title>
<polygon fill="#be232d" stroke="black" points="1369.14,-59.75 1218.89,-59.75 1218.89,0 1369.14,0 1369.14,-59.75"/>
<text text-anchor="start" x="1290.26" y="-42.45" font-family="MicrosoftYaHei" font-size="14.00">7</text>
<text text-anchor="start" x="1226.89" y="-25.2" font-family="MicrosoftYaHei" font-size="14.00">friedman_mse=0.122</text>
<text text-anchor="start" x="1276.76" y="-7.95" font-family="MicrosoftYaHei" font-size="14.00">5.857</text>
</g>
<!-- 10&#45;&gt;11 -->
<g id="edge13" class="edge">
<title>10&#45;&gt;11</title>
<path fill="none" stroke="black" d="M1343.7,-95.97C1336.82,-86.96 1329.57,-77.46 1322.79,-68.58"/>
<polygon fill="black" stroke="black" points="1325.06,-66.79 1316.21,-60.96 1319.5,-71.03 1325.06,-66.79"/>
<text text-anchor="middle" x="1312.89" y="-80.06" font-family="MicrosoftYaHei" font-size="14.00">不选D.MATLAB</text>
</g>
<!-- 12 -->
<g id="node15" class="node">
<title>12</title>
<polygon fill="#ed8467" stroke="black" points="1522.64,-59.75 1387.39,-59.75 1387.39,0 1522.64,0 1522.64,-59.75"/>
<text text-anchor="start" x="1451.26" y="-42.45" font-family="MicrosoftYaHei" font-size="14.00">1</text>
<text text-anchor="start" x="1395.39" y="-25.2" font-family="MicrosoftYaHei" font-size="14.00">friedman_mse=0.0</text>
<text text-anchor="start" x="1445.26" y="-7.95" font-family="MicrosoftYaHei" font-size="14.00">5.0</text>
</g>
<!-- 10&#45;&gt;12 -->
<g id="edge14" class="edge">
<title>10&#45;&gt;12</title>
<path fill="none" stroke="black" d="M1405.94,-95.97C1412.74,-86.96 1419.9,-77.46 1426.59,-68.58"/>
<polygon fill="black" stroke="black" points="1429.86,-71.05 1433.09,-60.96 1424.27,-66.84 1429.86,-71.05"/>
<text text-anchor="middle" x="1436.56" y="-80.04" font-family="MicrosoftYaHei" font-size="14.00">D.MATLAB</text>
</g>
<!-- 14 -->
<g id="node16" class="node">
<title>14</title>
<polygon fill="#ed8467" stroke="black" points="2046.64,-59.75 1911.39,-59.75 1911.39,0 2046.64,0 2046.64,-59.75"/>
<text text-anchor="start" x="1975.26" y="-42.45" font-family="MicrosoftYaHei" font-size="14.00">1</text>
<text text-anchor="start" x="1919.39" y="-25.2" font-family="MicrosoftYaHei" font-size="14.00">friedman_mse=0.0</text>
<text text-anchor="start" x="1969.26" y="-7.95" font-family="MicrosoftYaHei" font-size="14.00">5.0</text>
</g>
<!-- 13&#45;&gt;14 -->
<g id="edge15" class="edge">
<title>13&#45;&gt;14</title>
<path fill="none" stroke="black" d="M2025.8,-95.36C2019.42,-86.57 2012.72,-77.34 2006.45,-68.7"/>
<polygon fill="black" stroke="black" points="2008.81,-66.98 2000.11,-60.95 2003.15,-71.1 2008.81,-66.98"/>
<text text-anchor="middle" x="1996.18" y="-78.46" font-family="MicrosoftYaHei" font-size="14.00">否</text>
</g>
<!-- 15 -->
<g id="node17" class="node">
<title>15</title>
<polygon fill="#f1cab6" stroke="black" points="2199.64,-59.75 2064.39,-59.75 2064.39,0 2199.64,0 2199.64,-59.75"/>
<text text-anchor="start" x="2128.26" y="-42.45" font-family="MicrosoftYaHei" font-size="14.00">2</text>
<text text-anchor="start" x="2072.39" y="-25.2" font-family="MicrosoftYaHei" font-size="14.00">friedman_mse=0.0</text>
<text text-anchor="start" x="2122.26" y="-7.95" font-family="MicrosoftYaHei" font-size="14.00">4.0</text>
</g>
<!-- 13&#45;&gt;15 -->
<g id="edge16" class="edge">
<title>13&#45;&gt;15</title>
<path fill="none" stroke="black" d="M2085.83,-95.36C2092.13,-86.57 2098.74,-77.34 2104.93,-68.7"/>
<polygon fill="black" stroke="black" points="2108.22,-71.11 2111.19,-60.95 2102.53,-67.04 2108.22,-71.11"/>
<text text-anchor="middle" x="2115.27" y="-78.44" font-family="MicrosoftYaHei" font-size="14.00">是</text>
</g>
<!-- 18 -->
<g id="node20" class="node">
<title>18</title>
<polygon fill="#c0d3f5" stroke="black" points="2677.64,-167.87 2542.39,-167.87 2542.39,-108.12 2677.64,-108.12 2677.64,-167.87"/>
<text text-anchor="start" x="2606.26" y="-150.57" font-family="MicrosoftYaHei" font-size="14.00">2</text>
<text text-anchor="start" x="2550.39" y="-133.32" font-family="MicrosoftYaHei" font-size="14.00">friedman_mse=0.0</text>
<text text-anchor="start" x="2600.26" y="-116.07" font-family="MicrosoftYaHei" font-size="14.00">3.0</text>
</g>
<!-- 17&#45;&gt;18 -->
<g id="edge19" class="edge">
<title>17&#45;&gt;18</title>
<path fill="none" stroke="black" d="M2697.9,-216.72C2682.7,-203.27 2665.9,-188.42 2651.1,-175.33"/>
<polygon fill="black" stroke="black" points="2653.91,-173.26 2644.1,-169.26 2649.27,-178.51 2653.91,-173.26"/>
<text text-anchor="middle" x="2644.63" y="-188.54" font-family="MicrosoftYaHei" font-size="14.00">&lt;=4.5</text>
</g>
<!-- 19 -->
<g id="node21" class="node">
<title>19</title>
<ellipse fill="#4860d1" stroke="black" cx="2958.01" cy="-138" rx="262.15" ry="42.25"/>
<text text-anchor="start" x="2954.26" y="-150.57" font-family="MicrosoftYaHei" font-size="14.00">4</text>
<text text-anchor="start" x="2890.89" y="-133.32" font-family="MicrosoftYaHei" font-size="14.00">friedman_mse=0.188</text>
<text text-anchor="start" x="2780.65" y="-116.07" font-family="MicrosoftYaHei" font-size="14.00">21.您认为影响您使用答案习惯的因素有:作业占分比重</text>
</g>
<!-- 17&#45;&gt;19 -->
<g id="edge20" class="edge">
<title>17&#45;&gt;19</title>
<path fill="none" stroke="black" d="M2815.87,-217.71C2835.17,-207.02 2856.19,-195.38 2876,-184.41"/>
<polygon fill="black" stroke="black" points="2877.57,-186.99 2884.62,-179.09 2874.18,-180.87 2877.57,-186.99"/>
<text text-anchor="middle" x="2878.72" y="-198.44" font-family="MicrosoftYaHei" font-size="14.00">&gt;4.5</text>
</g>
<!-- 23 -->
<g id="node24" class="node">
<title>23</title>
<ellipse fill="#d8dbe1" stroke="black" cx="3606.01" cy="-138" rx="368.21" ry="42.25"/>
<text text-anchor="start" x="3598.51" y="-150.57" font-family="MicrosoftYaHei" font-size="14.00">12</text>
<text text-anchor="start" x="3538.89" y="-133.32" font-family="MicrosoftYaHei" font-size="14.00">friedman_mse=2.076</text>
<text text-anchor="start" x="3353.65" y="-116.07" font-family="MicrosoftYaHei" font-size="14.00">16.您在编程课学习的过程中，如果不使用/少使用答案，您的学习会更好吗？</text>
</g>
<!-- 22&#45;&gt;23 -->
<g id="edge23" class="edge">
<title>22&#45;&gt;23</title>
<path fill="none" stroke="black" d="M3606.01,-216.05C3606.01,-208.16 3606.01,-199.8 3606.01,-191.62"/>
<polygon fill="black" stroke="black" points="3609.51,-191.62 3606.01,-181.62 3602.51,-191.62 3609.51,-191.62"/>
<text text-anchor="middle" x="3588.34" y="-192.12" font-family="MicrosoftYaHei" font-size="14.00">否</text>
</g>
<!-- 26 -->
<g id="node25" class="node">
<title>26</title>
<polygon fill="#3a4cc0" stroke="black" points="4127.64,-167.87 3992.39,-167.87 3992.39,-108.12 4127.64,-108.12 4127.64,-167.87"/>
<text text-anchor="start" x="4056.26" y="-150.57" font-family="MicrosoftYaHei" font-size="14.00">2</text>
<text text-anchor="start" x="4000.39" y="-133.32" font-family="MicrosoftYaHei" font-size="14.00">friedman_mse=0.0</text>
<text text-anchor="start" x="4050.26" y="-116.07" font-family="MicrosoftYaHei" font-size="14.00">1.0</text>
</g>
<!-- 22&#45;&gt;26 -->
<g id="edge24" class="edge">
<title>22&#45;&gt;26</title>
<path fill="none" stroke="black" d="M3836.22,-221.37C3885.4,-210.61 3936.52,-197.06 3983.01,-180.25 3988.86,-178.13 3994.81,-175.64 4000.68,-172.94"/>
<polygon fill="black" stroke="black" points="4001.96,-175.73 4009.45,-168.23 3998.92,-169.42 4001.96,-175.73"/>
<text text-anchor="middle" x="4002.19" y="-185.66" font-family="MicrosoftYaHei" font-size="14.00">是</text>
</g>
<!-- 20 -->
<g id="node22" class="node">
<title>20</title>
<polygon fill="#5876e2" stroke="black" points="2950.39,-59.75 2807.64,-59.75 2807.64,0 2950.39,0 2950.39,-59.75"/>
<text text-anchor="start" x="2875.26" y="-42.45" font-family="MicrosoftYaHei" font-size="14.00">2</text>
<text text-anchor="start" x="2815.64" y="-25.2" font-family="MicrosoftYaHei" font-size="14.00">friedman_mse=0.25</text>
<text text-anchor="start" x="2869.26" y="-7.95" font-family="MicrosoftYaHei" font-size="14.00">1.5</text>
</g>
<!-- 19&#45;&gt;20 -->
<g id="edge21" class="edge">
<title>19&#45;&gt;20</title>
<path fill="none" stroke="black" d="M2927.24,-95.67C2920.68,-86.85 2913.79,-77.59 2907.32,-68.91"/>
<polygon fill="black" stroke="black" points="2909.56,-67.05 2900.78,-61.12 2903.94,-71.23 2909.56,-67.05"/>
<text text-anchor="middle" x="2897.16" y="-78.68" font-family="MicrosoftYaHei" font-size="14.00">否</text>
</g>
<!-- 21 -->
<g id="node23" class="node">
<title>21</title>
<polygon fill="#3a4cc0" stroke="black" points="3103.64,-59.75 2968.39,-59.75 2968.39,0 3103.64,0 3103.64,-59.75"/>
<text text-anchor="start" x="3032.26" y="-42.45" font-family="MicrosoftYaHei" font-size="14.00">2</text>
<text text-anchor="start" x="2976.39" y="-25.2" font-family="MicrosoftYaHei" font-size="14.00">friedman_mse=0.0</text>
<text text-anchor="start" x="3026.26" y="-7.95" font-family="MicrosoftYaHei" font-size="14.00">1.0</text>
</g>
<!-- 19&#45;&gt;21 -->
<g id="edge22" class="edge">
<title>19&#45;&gt;21</title>
<path fill="none" stroke="black" d="M2988.39,-95.67C2994.87,-86.85 3001.68,-77.59 3008.06,-68.91"/>
<polygon fill="black" stroke="black" points="3011.42,-71.25 3014.52,-61.12 3005.78,-67.1 3011.42,-71.25"/>
<text text-anchor="middle" x="3018.3" y="-78.65" font-family="MicrosoftYaHei" font-size="14.00">是</text>
</g>
<!-- 24 -->
<g id="node26" class="node">
<title>24</title>
<polygon fill="#cad8ee" stroke="black" points="3600.14,-59.75 3449.89,-59.75 3449.89,0 3600.14,0 3600.14,-59.75"/>
<text text-anchor="start" x="3517.51" y="-42.45" font-family="MicrosoftYaHei" font-size="14.00">11</text>
<text text-anchor="start" x="3457.89" y="-25.2" font-family="MicrosoftYaHei" font-size="14.00">friedman_mse=1.603</text>
<text text-anchor="start" x="3507.76" y="-7.95" font-family="MicrosoftYaHei" font-size="14.00">3.182</text>
</g>
<!-- 23&#45;&gt;24 -->
<g id="edge25" class="edge">
<title>23&#45;&gt;24</title>
<path fill="none" stroke="black" d="M3574.46,-95.67C3567.67,-86.76 3560.52,-77.39 3553.83,-68.63"/>
<polygon fill="black" stroke="black" points="3556.18,-66.94 3547.33,-61.12 3550.62,-71.19 3556.18,-66.94"/>
<text text-anchor="middle" x="3544" y="-80.22" font-family="MicrosoftYaHei" font-size="14.00">不，答案促进思考, 是，少用答案更好, nan</text>
</g>
<!-- 25 -->
<g id="node27" class="node">
<title>25</title>
<polygon fill="#b30326" stroke="black" points="3753.64,-59.75 3618.39,-59.75 3618.39,0 3753.64,0 3753.64,-59.75"/>
<text text-anchor="start" x="3682.26" y="-42.45" font-family="MicrosoftYaHei" font-size="14.00">1</text>
<text text-anchor="start" x="3626.39" y="-25.2" font-family="MicrosoftYaHei" font-size="14.00">friedman_mse=0.0</text>
<text text-anchor="start" x="3676.26" y="-7.95" font-family="MicrosoftYaHei" font-size="14.00">6.0</text>
</g>
<!-- 23&#45;&gt;25 -->
<g id="edge26" class="edge">
<title>23&#45;&gt;25</title>
<path fill="none" stroke="black" d="M3637.17,-95.67C3643.88,-86.76 3650.95,-77.39 3657.55,-68.63"/>
<polygon fill="black" stroke="black" points="3660.75,-71.21 3663.97,-61.12 3655.16,-66.99 3660.75,-71.21"/>
<text text-anchor="middle" x="3667.45" y="-78.7" font-family="MicrosoftYaHei" font-size="14.00">其他</text>
</g>
</g>
</svg>
