<?xml version="1.0" encoding="UTF-8" standalone="no"?>
<!DOCTYPE svg PUBLIC "-//W3C//DTD SVG 1.1//EN"
 "http://www.w3.org/Graphics/SVG/1.1/DTD/svg11.dtd">
<!-- Generated by graphviz version 8.0.5 (20230430.1635)
 -->
<!-- Title: Tree Pages: 1 -->
<svg width="3633pt" height="550pt"
 viewBox="0.00 0.00 3632.93 549.75" xmlns="http://www.w3.org/2000/svg" xmlns:xlink="http://www.w3.org/1999/xlink">
<g id="graph0" class="graph" transform="scale(1 1) rotate(0) translate(4 545.75)">
<title>Tree</title>
<polygon fill="white" stroke="none" points="-4,4 -4,-545.75 3628.93,-545.75 3628.93,4 -4,4"/>
<!-- 0 -->
<g id="node1" class="node">
<title>0</title>
<ellipse fill="#f7ae91" stroke="black" cx="1844.72" cy="-499.5" rx="286.01" ry="42.25"/>
<text text-anchor="start" x="1837.22" y="-512.07" font-family="MicrosoftYaHei" font-size="14.00">84</text>
<text text-anchor="start" x="1777.6" y="-494.82" font-family="MicrosoftYaHei" font-size="14.00">friedman_mse=1.988</text>
<text text-anchor="start" x="1650.48" y="-477.57" font-family="MicrosoftYaHei" font-size="14.00">13.您修读计算机类基础课（即JAVA，C等）这门课的原因是</text>
</g>
<!-- 1 -->
<g id="node2" class="node">
<title>1</title>
<ellipse fill="#f08d6f" stroke="black" cx="1435.72" cy="-379" rx="240.94" ry="42.25"/>
<text text-anchor="start" x="1428.22" y="-391.57" font-family="MicrosoftYaHei" font-size="14.00">64</text>
<text text-anchor="start" x="1368.6" y="-374.32" font-family="MicrosoftYaHei" font-size="14.00">friedman_mse=1.004</text>
<text text-anchor="start" x="1273.36" y="-357.07" font-family="MicrosoftYaHei" font-size="14.00">17.您觉得作业对您学习这两门课帮助大吗？:编程</text>
</g>
<!-- 0&#45;&gt;1 -->
<g id="edge1" class="edge">
<title>0&#45;&gt;1</title>
<path fill="none" stroke="black" d="M1716.44,-461.33C1669.62,-447.76 1616.59,-432.4 1569.32,-418.7"/>
<polygon fill="black" stroke="black" points="1570.59,-415.14 1560.01,-415.72 1568.64,-421.86 1570.59,-415.14"/>
<text text-anchor="middle" x="1571.07" y="-432.94" font-family="MicrosoftYaHei" font-size="14.00">不选A.只因学校要求</text>
</g>
<!-- 16 -->
<g id="node3" class="node">
<title>16</title>
<ellipse fill="#c9d7ee" stroke="black" cx="2300.72" cy="-379" rx="431.85" ry="42.25"/>
<text text-anchor="start" x="2293.22" y="-391.57" font-family="MicrosoftYaHei" font-size="14.00">20</text>
<text text-anchor="start" x="2233.6" y="-374.32" font-family="MicrosoftYaHei" font-size="14.00">friedman_mse=2.828</text>
<text text-anchor="start" x="2003.36" y="-357.07" font-family="MicrosoftYaHei" font-size="14.00">14.做计算机类基础课的作业时，若您需要使用答案，一般如何获取答案？:我从不使用答案</text>
</g>
<!-- 0&#45;&gt;16 -->
<g id="edge2" class="edge">
<title>0&#45;&gt;16</title>
<path fill="none" stroke="black" d="M1984.33,-462.22C2033.57,-449.42 2089.32,-434.94 2140.16,-421.72"/>
<polygon fill="black" stroke="black" points="2140.79,-424.92 2149.59,-419.01 2139.03,-418.14 2140.79,-424.92"/>
<text text-anchor="middle" x="2137.93" y="-435.89" font-family="MicrosoftYaHei" font-size="14.00">A.只因学校要求</text>
</g>
<!-- 2 -->
<g id="node4" class="node">
<title>2</title>
<ellipse fill="#f7ae91" stroke="black" cx="569.72" cy="-258.5" rx="569.72" ry="42.25"/>
<text text-anchor="start" x="562.22" y="-271.07" font-family="MicrosoftYaHei" font-size="14.00">21</text>
<text text-anchor="start" x="502.6" y="-253.82" font-family="MicrosoftYaHei" font-size="14.00">friedman_mse=1.297</text>
<text text-anchor="start" x="174.87" y="-236.57" font-family="MicrosoftYaHei" font-size="14.00">14.做计算机类基础课的作业时，若您需要使用答案，一般如何获取答案？:问思路（包括助教，老师，同学，搜索引擎）</text>
</g>
<!-- 1&#45;&gt;2 -->
<g id="edge3" class="edge">
<title>1&#45;&gt;2</title>
<path fill="none" stroke="black" d="M1247.55,-352.25C1130.93,-336.29 979.02,-315.51 848.58,-297.66"/>
<polygon fill="black" stroke="black" points="849.41,-294.1 839.03,-296.21 848.46,-301.04 849.41,-294.1"/>
<text text-anchor="middle" x="853.15" y="-311.45" font-family="MicrosoftYaHei" font-size="14.00">&lt;=5.5</text>
</g>
<!-- 9 -->
<g id="node5" class="node">
<title>9</title>
<ellipse fill="#ea7b60" stroke="black" cx="1435.72" cy="-258.5" rx="230.33" ry="42.25"/>
<text text-anchor="start" x="1428.22" y="-271.07" font-family="MicrosoftYaHei" font-size="14.00">43</text>
<text text-anchor="start" x="1368.6" y="-253.82" font-family="MicrosoftYaHei" font-size="14.00">friedman_mse=0.736</text>
<text text-anchor="start" x="1280.86" y="-236.57" font-family="MicrosoftYaHei" font-size="14.00">15.问编程作业思路时您更倾向于问:老师，助教</text>
</g>
<!-- 1&#45;&gt;9 -->
<g id="edge4" class="edge">
<title>1&#45;&gt;9</title>
<path fill="none" stroke="black" d="M1435.72,-336.55C1435.72,-328.66 1435.72,-320.3 1435.72,-312.12"/>
<polygon fill="black" stroke="black" points="1439.22,-312.12 1435.72,-302.12 1432.22,-312.12 1439.22,-312.12"/>
<text text-anchor="middle" x="1453.4" y="-314.12" font-family="MicrosoftYaHei" font-size="14.00">&gt;5.5</text>
</g>
<!-- 17 -->
<g id="node18" class="node">
<title>17</title>
<ellipse fill="#b3ccfa" stroke="black" cx="2300.72" cy="-258.5" rx="569.72" ry="42.25"/>
<text text-anchor="start" x="2293.22" y="-271.07" font-family="MicrosoftYaHei" font-size="14.00">15</text>
<text text-anchor="start" x="2237.35" y="-253.82" font-family="MicrosoftYaHei" font-size="14.00">friedman_mse=2.16</text>
<text text-anchor="start" x="1905.87" y="-236.57" font-family="MicrosoftYaHei" font-size="14.00">14.做计算机类基础课的作业时，若您需要使用答案，一般如何获取答案？:问思路（包括助教，老师，同学，搜索引擎）</text>
</g>
<!-- 16&#45;&gt;17 -->
<g id="edge17" class="edge">
<title>16&#45;&gt;17</title>
<path fill="none" stroke="black" d="M2300.72,-336.55C2300.72,-328.66 2300.72,-320.3 2300.72,-312.12"/>
<polygon fill="black" stroke="black" points="2304.22,-312.12 2300.72,-302.12 2297.22,-312.12 2304.22,-312.12"/>
<text text-anchor="middle" x="2283.05" y="-312.62" font-family="MicrosoftYaHei" font-size="14.00">否</text>
</g>
<!-- 22 -->
<g id="node19" class="node">
<title>22</title>
<ellipse fill="#f5c0a7" stroke="black" cx="3256.72" cy="-258.5" rx="368.21" ry="42.25"/>
<text text-anchor="start" x="3252.97" y="-271.07" font-family="MicrosoftYaHei" font-size="14.00">5</text>
<text text-anchor="start" x="3193.35" y="-253.82" font-family="MicrosoftYaHei" font-size="14.00">friedman_mse=3.36</text>
<text text-anchor="start" x="3004.36" y="-236.57" font-family="MicrosoftYaHei" font-size="14.00">16.您在编程课学习的过程中，如果不使用/少使用答案，您的学习会更好吗？</text>
</g>
<!-- 16&#45;&gt;22 -->
<g id="edge18" class="edge">
<title>16&#45;&gt;22</title>
<path fill="none" stroke="black" d="M2565.12,-345.23C2700.31,-328.47 2864.19,-308.15 2998.49,-291.51"/>
<polygon fill="black" stroke="black" points="2998.84,-294.87 3008.34,-290.16 2997.98,-287.92 2998.84,-294.87"/>
<text text-anchor="middle" x="2993.97" y="-303.71" font-family="MicrosoftYaHei" font-size="14.00">是</text>
</g>
<!-- 3 -->
<g id="node6" class="node">
<title>3</title>
<ellipse fill="#f1cab6" stroke="black" cx="214.72" cy="-138" rx="141.77" ry="42.25"/>
<text text-anchor="start" x="207.22" y="-150.57" font-family="MicrosoftYaHei" font-size="14.00">11</text>
<text text-anchor="start" x="147.6" y="-133.32" font-family="MicrosoftYaHei" font-size="14.00">friedman_mse=1.636</text>
<text text-anchor="start" x="122.48" y="-116.07" font-family="MicrosoftYaHei" font-size="14.00">12.您之前有编程的基础吗？</text>
</g>
<!-- 2&#45;&gt;3 -->
<g id="edge5" class="edge">
<title>2&#45;&gt;3</title>
<path fill="none" stroke="black" d="M448.05,-216.88C405.86,-202.8 358.99,-187.16 318.39,-173.6"/>
<polygon fill="black" stroke="black" points="319.8,-170.05 309.21,-170.21 317.59,-176.69 319.8,-170.05"/>
<text text-anchor="middle" x="319.38" y="-186.4" font-family="MicrosoftYaHei" font-size="14.00">否</text>
</g>
<!-- 6 -->
<g id="node7" class="node">
<title>6</title>
<ellipse fill="#ed8467" stroke="black" cx="569.72" cy="-138" rx="194.8" ry="42.25"/>
<text text-anchor="start" x="562.22" y="-150.57" font-family="MicrosoftYaHei" font-size="14.00">10</text>
<text text-anchor="start" x="510.1" y="-133.32" font-family="MicrosoftYaHei" font-size="14.00">friedman_mse=0.4</text>
<text text-anchor="start" x="439.98" y="-116.07" font-family="MicrosoftYaHei" font-size="14.00">11.请问您上的计算机编程基础课程是？</text>
</g>
<!-- 2&#45;&gt;6 -->
<g id="edge6" class="edge">
<title>2&#45;&gt;6</title>
<path fill="none" stroke="black" d="M569.72,-216.05C569.72,-208.16 569.72,-199.8 569.72,-191.62"/>
<polygon fill="black" stroke="black" points="573.22,-191.62 569.72,-181.62 566.22,-191.62 573.22,-191.62"/>
<text text-anchor="middle" x="587.4" y="-192.12" font-family="MicrosoftYaHei" font-size="14.00">是</text>
</g>
<!-- 10 -->
<g id="node12" class="node">
<title>10</title>
<ellipse fill="#ee8669" stroke="black" cx="1203.72" cy="-138" rx="421.24" ry="42.25"/>
<text text-anchor="start" x="1196.22" y="-150.57" font-family="MicrosoftYaHei" font-size="14.00">37</text>
<text text-anchor="start" x="1136.6" y="-133.32" font-family="MicrosoftYaHei" font-size="14.00">friedman_mse=0.729</text>
<text text-anchor="start" x="913.86" y="-116.07" font-family="MicrosoftYaHei" font-size="14.00">14.做计算机类基础课的作业时，若您需要使用答案，一般如何获取答案？:与同学对答案</text>
</g>
<!-- 9&#45;&gt;10 -->
<g id="edge11" class="edge">
<title>9&#45;&gt;10</title>
<path fill="none" stroke="black" d="M1358.79,-218.2C1337.77,-207.47 1314.8,-195.74 1293.14,-184.67"/>
<polygon fill="black" stroke="black" points="1295.12,-181.24 1284.63,-179.81 1291.94,-187.48 1295.12,-181.24"/>
<text text-anchor="middle" x="1291.33" y="-197.42" font-family="MicrosoftYaHei" font-size="14.00">否</text>
</g>
<!-- 13 -->
<g id="node13" class="node">
<title>13</title>
<ellipse fill="#bf282e" stroke="black" cx="1928.72" cy="-138" rx="286.01" ry="42.25"/>
<text text-anchor="start" x="1924.97" y="-150.57" font-family="MicrosoftYaHei" font-size="14.00">6</text>
<text text-anchor="start" x="1861.6" y="-133.32" font-family="MicrosoftYaHei" font-size="14.00">friedman_mse=0.139</text>
<text text-anchor="start" x="1734.48" y="-116.07" font-family="MicrosoftYaHei" font-size="14.00">13.您修读计算机类基础课（即JAVA，C等）这门课的原因是</text>
</g>
<!-- 9&#45;&gt;13 -->
<g id="edge12" class="edge">
<title>9&#45;&gt;13</title>
<path fill="none" stroke="black" d="M1573.71,-224.33C1634.83,-209.64 1707.06,-192.28 1770.37,-177.06"/>
<polygon fill="black" stroke="black" points="1770.95,-180.28 1779.85,-174.54 1769.31,-173.48 1770.95,-180.28"/>
<text text-anchor="middle" x="1767.8" y="-189.69" font-family="MicrosoftYaHei" font-size="14.00">是</text>
</g>
<!-- 4 -->
<g id="node8" class="node">
<title>4</title>
<polygon fill="#f6ba9f" stroke="black" points="208.1,-59.75 65.35,-59.75 65.35,0 208.1,0 208.1,-59.75"/>
<text text-anchor="start" x="129.22" y="-42.45" font-family="MicrosoftYaHei" font-size="14.00">10</text>
<text text-anchor="start" x="73.35" y="-25.2" font-family="MicrosoftYaHei" font-size="14.00">friedman_mse=0.81</text>
<text text-anchor="start" x="126.97" y="-7.95" font-family="MicrosoftYaHei" font-size="14.00">4.3</text>
</g>
<!-- 3&#45;&gt;4 -->
<g id="edge7" class="edge">
<title>3&#45;&gt;4</title>
<path fill="none" stroke="black" d="M184.79,-96.27C178.15,-87.24 171.15,-77.71 164.59,-68.79"/>
<polygon fill="black" stroke="black" points="166.97,-67.11 158.23,-61.13 161.33,-71.26 166.97,-67.11"/>
<text text-anchor="middle" x="154.45" y="-80.17" font-family="MicrosoftYaHei" font-size="14.00">A.接触过竞赛, C.没有编程基础, nan</text>
</g>
<!-- 5 -->
<g id="node9" class="node">
<title>5</title>
<polygon fill="#3a4cc0" stroke="black" points="361.35,-59.75 226.1,-59.75 226.1,0 361.35,0 361.35,-59.75"/>
<text text-anchor="start" x="289.97" y="-42.45" font-family="MicrosoftYaHei" font-size="14.00">1</text>
<text text-anchor="start" x="234.1" y="-25.2" font-family="MicrosoftYaHei" font-size="14.00">friedman_mse=0.0</text>
<text text-anchor="start" x="283.97" y="-7.95" font-family="MicrosoftYaHei" font-size="14.00">1.0</text>
</g>
<!-- 3&#45;&gt;5 -->
<g id="edge8" class="edge">
<title>3&#45;&gt;5</title>
<path fill="none" stroke="black" d="M245.04,-96.27C251.77,-87.24 258.86,-77.71 265.5,-68.79"/>
<polygon fill="black" stroke="black" points="268.78,-71.24 271.95,-61.13 263.17,-67.06 268.78,-71.24"/>
<text text-anchor="middle" x="275.57" y="-80.19" font-family="MicrosoftYaHei" font-size="14.00">B.仅仅简单了解</text>
</g>
<!-- 7 -->
<g id="node10" class="node">
<title>7</title>
<polygon fill="#e9795e" stroke="black" points="587.85,-59.75 437.6,-59.75 437.6,0 587.85,0 587.85,-59.75"/>
<text text-anchor="start" x="508.97" y="-42.45" font-family="MicrosoftYaHei" font-size="14.00">9</text>
<text text-anchor="start" x="445.6" y="-25.2" font-family="MicrosoftYaHei" font-size="14.00">friedman_mse=0.321</text>
<text text-anchor="start" x="495.47" y="-7.95" font-family="MicrosoftYaHei" font-size="14.00">5.111</text>
</g>
<!-- 6&#45;&gt;7 -->
<g id="edge9" class="edge">
<title>6&#45;&gt;7</title>
<path fill="none" stroke="black" d="M547.52,-95.67C542.94,-87.13 538.13,-78.17 533.59,-69.73"/>
<polygon fill="black" stroke="black" points="536.25,-68.27 528.43,-61.12 530.08,-71.58 536.25,-68.27"/>
<text text-anchor="middle" x="521.22" y="-79.38" font-family="MicrosoftYaHei" font-size="14.00">不选B.Java B</text>
</g>
<!-- 8 -->
<g id="node11" class="node">
<title>8</title>
<polygon fill="#f1cab6" stroke="black" points="741.35,-59.75 606.1,-59.75 606.1,0 741.35,0 741.35,-59.75"/>
<text text-anchor="start" x="669.97" y="-42.45" font-family="MicrosoftYaHei" font-size="14.00">1</text>
<text text-anchor="start" x="614.1" y="-25.2" font-family="MicrosoftYaHei" font-size="14.00">friedman_mse=0.0</text>
<text text-anchor="start" x="663.97" y="-7.95" font-family="MicrosoftYaHei" font-size="14.00">4.0</text>
</g>
<!-- 6&#45;&gt;8 -->
<g id="edge10" class="edge">
<title>6&#45;&gt;8</title>
<path fill="none" stroke="black" d="M609.64,-96.27C618.76,-86.96 628.42,-77.11 637.38,-67.96"/>
<polygon fill="black" stroke="black" points="639.56,-70.72 644.06,-61.13 634.56,-65.82 639.56,-70.72"/>
<text text-anchor="middle" x="645.31" y="-80.45" font-family="MicrosoftYaHei" font-size="14.00">B.Java B</text>
</g>
<!-- 11 -->
<g id="node14" class="node">
<title>11</title>
<polygon fill="#e7755c" stroke="black" points="1195.85,-59.75 1045.6,-59.75 1045.6,0 1195.85,0 1195.85,-59.75"/>
<text text-anchor="start" x="1113.22" y="-42.45" font-family="MicrosoftYaHei" font-size="14.00">27</text>
<text text-anchor="start" x="1053.6" y="-25.2" font-family="MicrosoftYaHei" font-size="14.00">friedman_mse=0.422</text>
<text text-anchor="start" x="1103.47" y="-7.95" font-family="MicrosoftYaHei" font-size="14.00">5.148</text>
</g>
<!-- 10&#45;&gt;11 -->
<g id="edge13" class="edge">
<title>10&#45;&gt;11</title>
<path fill="none" stroke="black" d="M1171.4,-95.67C1164.43,-86.76 1157.11,-77.39 1150.26,-68.63"/>
<polygon fill="black" stroke="black" points="1152.51,-66.84 1143.59,-61.12 1147,-71.15 1152.51,-66.84"/>
<text text-anchor="middle" x="1140.56" y="-78.76" font-family="MicrosoftYaHei" font-size="14.00">否</text>
</g>
<!-- 12 -->
<g id="node15" class="node">
<title>12</title>
<polygon fill="#f6ab8d" stroke="black" points="1357.1,-59.75 1214.35,-59.75 1214.35,0 1357.1,0 1357.1,-59.75"/>
<text text-anchor="start" x="1278.22" y="-42.45" font-family="MicrosoftYaHei" font-size="14.00">10</text>
<text text-anchor="start" x="1222.35" y="-25.2" font-family="MicrosoftYaHei" font-size="14.00">friedman_mse=1.25</text>
<text text-anchor="start" x="1275.97" y="-7.95" font-family="MicrosoftYaHei" font-size="14.00">4.5</text>
</g>
<!-- 10&#45;&gt;12 -->
<g id="edge14" class="edge">
<title>10&#45;&gt;12</title>
<path fill="none" stroke="black" d="M1235.66,-95.67C1242.54,-86.76 1249.78,-77.39 1256.55,-68.63"/>
<polygon fill="black" stroke="black" points="1259.79,-71.17 1263.13,-61.12 1254.25,-66.89 1259.79,-71.17"/>
<text text-anchor="middle" x="1266.31" y="-78.74" font-family="MicrosoftYaHei" font-size="14.00">是</text>
</g>
<!-- 14 -->
<g id="node16" class="node">
<title>14</title>
<polygon fill="#b30326" stroke="black" points="1919.35,-59.75 1784.1,-59.75 1784.1,0 1919.35,0 1919.35,-59.75"/>
<text text-anchor="start" x="1847.97" y="-42.45" font-family="MicrosoftYaHei" font-size="14.00">5</text>
<text text-anchor="start" x="1792.1" y="-25.2" font-family="MicrosoftYaHei" font-size="14.00">friedman_mse=0.0</text>
<text text-anchor="start" x="1841.97" y="-7.95" font-family="MicrosoftYaHei" font-size="14.00">6.0</text>
</g>
<!-- 13&#45;&gt;14 -->
<g id="edge15" class="edge">
<title>13&#45;&gt;14</title>
<path fill="none" stroke="black" d="M1898.73,-95.67C1892.34,-86.85 1885.62,-77.59 1879.32,-68.91"/>
<polygon fill="black" stroke="black" points="1881.65,-67.15 1872.94,-61.12 1875.98,-71.26 1881.65,-67.15"/>
<text text-anchor="middle" x="1869.01" y="-80.13" font-family="MicrosoftYaHei" font-size="14.00">C.未来工作必备, D.感兴趣, E.没考虑过, nan</text>
</g>
<!-- 15 -->
<g id="node17" class="node">
<title>15</title>
<polygon fill="#ed8467" stroke="black" points="2072.35,-59.75 1937.1,-59.75 1937.1,0 2072.35,0 2072.35,-59.75"/>
<text text-anchor="start" x="2000.97" y="-42.45" font-family="MicrosoftYaHei" font-size="14.00">1</text>
<text text-anchor="start" x="1945.1" y="-25.2" font-family="MicrosoftYaHei" font-size="14.00">friedman_mse=0.0</text>
<text text-anchor="start" x="1994.97" y="-7.95" font-family="MicrosoftYaHei" font-size="14.00">5.0</text>
</g>
<!-- 13&#45;&gt;15 -->
<g id="edge16" class="edge">
<title>13&#45;&gt;15</title>
<path fill="none" stroke="black" d="M1958.33,-95.67C1964.64,-86.85 1971.27,-77.59 1977.49,-68.91"/>
<polygon fill="black" stroke="black" points="1980.81,-71.28 1983.78,-61.12 1975.12,-67.21 1980.81,-71.28"/>
<text text-anchor="middle" x="1987.86" y="-80.11" font-family="MicrosoftYaHei" font-size="14.00">B.认为课程有用</text>
</g>
<!-- 18 -->
<g id="node20" class="node">
<title>18</title>
<polygon fill="#3a4cc0" stroke="black" points="2368.35,-167.87 2233.1,-167.87 2233.1,-108.12 2368.35,-108.12 2368.35,-167.87"/>
<text text-anchor="start" x="2296.97" y="-150.57" font-family="MicrosoftYaHei" font-size="14.00">2</text>
<text text-anchor="start" x="2241.1" y="-133.32" font-family="MicrosoftYaHei" font-size="14.00">friedman_mse=0.0</text>
<text text-anchor="start" x="2290.97" y="-116.07" font-family="MicrosoftYaHei" font-size="14.00">1.0</text>
</g>
<!-- 17&#45;&gt;18 -->
<g id="edge19" class="edge">
<title>17&#45;&gt;18</title>
<path fill="none" stroke="black" d="M2300.72,-216.05C2300.72,-204.12 2300.72,-191.12 2300.72,-179.26"/>
<polygon fill="black" stroke="black" points="2304.22,-179.3 2300.72,-169.3 2297.22,-179.3 2304.22,-179.3"/>
<text text-anchor="middle" x="2283.05" y="-179.8" font-family="MicrosoftYaHei" font-size="14.00">否</text>
</g>
<!-- 19 -->
<g id="node21" class="node">
<title>19</title>
<ellipse fill="#c5d5f2" stroke="black" cx="2627.72" cy="-138" rx="240.94" ry="42.25"/>
<text text-anchor="start" x="2620.22" y="-150.57" font-family="MicrosoftYaHei" font-size="14.00">13</text>
<text text-anchor="start" x="2560.6" y="-133.32" font-family="MicrosoftYaHei" font-size="14.00">friedman_mse=1.917</text>
<text text-anchor="start" x="2465.36" y="-116.07" font-family="MicrosoftYaHei" font-size="14.00">21.您认为影响您使用答案习惯的因素有:作业难度</text>
</g>
<!-- 17&#45;&gt;19 -->
<g id="edge20" class="edge">
<title>17&#45;&gt;19</title>
<path fill="none" stroke="black" d="M2413.26,-216.72C2445.82,-204.92 2481.39,-192.03 2514.02,-180.2"/>
<polygon fill="black" stroke="black" points="2514.84,-183.27 2523.05,-176.57 2512.45,-176.69 2514.84,-183.27"/>
<text text-anchor="middle" x="2513.45" y="-193.04" font-family="MicrosoftYaHei" font-size="14.00">是</text>
</g>
<!-- 23 -->
<g id="node24" class="node">
<title>23</title>
<ellipse fill="#f39879" stroke="black" cx="3192.72" cy="-138" rx="240.94" ry="42.25"/>
<text text-anchor="start" x="3188.97" y="-150.57" font-family="MicrosoftYaHei" font-size="14.00">4</text>
<text text-anchor="start" x="3125.6" y="-133.32" font-family="MicrosoftYaHei" font-size="14.00">friedman_mse=2.688</text>
<text text-anchor="start" x="3030.36" y="-116.07" font-family="MicrosoftYaHei" font-size="14.00">21.您认为影响您使用答案习惯的因素有:课程难度</text>
</g>
<!-- 22&#45;&gt;23 -->
<g id="edge23" class="edge">
<title>22&#45;&gt;23</title>
<path fill="none" stroke="black" d="M3234.34,-216.05C3229.73,-207.53 3224.84,-198.45 3220.08,-189.64"/>
<polygon fill="black" stroke="black" points="3222.82,-188.36 3214.99,-181.22 3216.66,-191.68 3222.82,-188.36"/>
<text text-anchor="middle" x="3207.83" y="-199.5" font-family="MicrosoftYaHei" font-size="14.00">是，少用答案更好, 其他, nan</text>
</g>
<!-- 26 -->
<g id="node25" class="node">
<title>26</title>
<polygon fill="#7b9ef8" stroke="black" points="3587.35,-167.87 3452.1,-167.87 3452.1,-108.12 3587.35,-108.12 3587.35,-167.87"/>
<text text-anchor="start" x="3515.97" y="-150.57" font-family="MicrosoftYaHei" font-size="14.00">1</text>
<text text-anchor="start" x="3460.1" y="-133.32" font-family="MicrosoftYaHei" font-size="14.00">friedman_mse=0.0</text>
<text text-anchor="start" x="3509.97" y="-116.07" font-family="MicrosoftYaHei" font-size="14.00">2.0</text>
</g>
<!-- 22&#45;&gt;26 -->
<g id="edge24" class="edge">
<title>22&#45;&gt;26</title>
<path fill="none" stroke="black" d="M3357.91,-217.59C3385.65,-206.08 3415.55,-193.13 3442.72,-180.25 3447.36,-178.05 3452.12,-175.71 3456.88,-173.31"/>
<polygon fill="black" stroke="black" points="3458.33,-175.99 3465.64,-168.31 3455.14,-169.76 3458.33,-175.99"/>
<text text-anchor="middle" x="3458.97" y="-185.93" font-family="MicrosoftYaHei" font-size="14.00">不，答案促进思考</text>
</g>
<!-- 20 -->
<g id="node22" class="node">
<title>20</title>
<polygon fill="#3a4cc0" stroke="black" points="2614.35,-59.75 2479.1,-59.75 2479.1,0 2614.35,0 2614.35,-59.75"/>
<text text-anchor="start" x="2542.97" y="-42.45" font-family="MicrosoftYaHei" font-size="14.00">2</text>
<text text-anchor="start" x="2487.1" y="-25.2" font-family="MicrosoftYaHei" font-size="14.00">friedman_mse=0.0</text>
<text text-anchor="start" x="2536.97" y="-7.95" font-family="MicrosoftYaHei" font-size="14.00">1.0</text>
</g>
<!-- 19&#45;&gt;20 -->
<g id="edge21" class="edge">
<title>19&#45;&gt;20</title>
<path fill="none" stroke="black" d="M2596.18,-95.67C2589.38,-86.76 2582.23,-77.39 2575.54,-68.63"/>
<polygon fill="black" stroke="black" points="2577.89,-66.94 2569.04,-61.12 2572.33,-71.19 2577.89,-66.94"/>
<text text-anchor="middle" x="2565.72" y="-78.72" font-family="MicrosoftYaHei" font-size="14.00">否</text>
</g>
<!-- 21 -->
<g id="node23" class="node">
<title>21</title>
<polygon fill="#dadcdf" stroke="black" points="2782.85,-59.75 2632.6,-59.75 2632.6,0 2782.85,0 2782.85,-59.75"/>
<text text-anchor="start" x="2700.22" y="-42.45" font-family="MicrosoftYaHei" font-size="14.00">11</text>
<text text-anchor="start" x="2640.6" y="-25.2" font-family="MicrosoftYaHei" font-size="14.00">friedman_mse=1.339</text>
<text text-anchor="start" x="2690.47" y="-7.95" font-family="MicrosoftYaHei" font-size="14.00">3.455</text>
</g>
<!-- 19&#45;&gt;21 -->
<g id="edge22" class="edge">
<title>19&#45;&gt;21</title>
<path fill="none" stroke="black" d="M2658.88,-95.67C2665.6,-86.76 2672.66,-77.39 2679.26,-68.63"/>
<polygon fill="black" stroke="black" points="2682.46,-71.21 2685.68,-61.12 2676.87,-66.99 2682.46,-71.21"/>
<text text-anchor="middle" x="2689.16" y="-78.7" font-family="MicrosoftYaHei" font-size="14.00">是</text>
</g>
<!-- 24 -->
<g id="node26" class="node">
<title>24</title>
<polygon fill="#7b9ef8" stroke="black" points="3179.35,-59.75 3044.1,-59.75 3044.1,0 3179.35,0 3179.35,-59.75"/>
<text text-anchor="start" x="3107.97" y="-42.45" font-family="MicrosoftYaHei" font-size="14.00">1</text>
<text text-anchor="start" x="3052.1" y="-25.2" font-family="MicrosoftYaHei" font-size="14.00">friedman_mse=0.0</text>
<text text-anchor="start" x="3101.97" y="-7.95" font-family="MicrosoftYaHei" font-size="14.00">2.0</text>
</g>
<!-- 23&#45;&gt;24 -->
<g id="edge25" class="edge">
<title>23&#45;&gt;24</title>
<path fill="none" stroke="black" d="M3161.18,-95.67C3154.38,-86.76 3147.23,-77.39 3140.54,-68.63"/>
<polygon fill="black" stroke="black" points="3142.89,-66.94 3134.04,-61.12 3137.33,-71.19 3142.89,-66.94"/>
<text text-anchor="middle" x="3130.72" y="-78.72" font-family="MicrosoftYaHei" font-size="14.00">否</text>
</g>
<!-- 25 -->
<g id="node27" class="node">
<title>25</title>
<polygon fill="#cc3f39" stroke="black" points="3347.85,-59.75 3197.6,-59.75 3197.6,0 3347.85,0 3347.85,-59.75"/>
<text text-anchor="start" x="3268.97" y="-42.45" font-family="MicrosoftYaHei" font-size="14.00">3</text>
<text text-anchor="start" x="3205.6" y="-25.2" font-family="MicrosoftYaHei" font-size="14.00">friedman_mse=0.222</text>
<text text-anchor="start" x="3255.47" y="-7.95" font-family="MicrosoftYaHei" font-size="14.00">5.667</text>
</g>
<!-- 23&#45;&gt;25 -->
<g id="edge26" class="edge">
<title>23&#45;&gt;25</title>
<path fill="none" stroke="black" d="M3223.88,-95.67C3230.6,-86.76 3237.66,-77.39 3244.26,-68.63"/>
<polygon fill="black" stroke="black" points="3247.46,-71.21 3250.68,-61.12 3241.87,-66.99 3247.46,-71.21"/>
<text text-anchor="middle" x="3254.16" y="-78.7" font-family="MicrosoftYaHei" font-size="14.00">是</text>
</g>
</g>
</svg>
