<?xml version="1.0" encoding="UTF-8" standalone="no"?>
<!DOCTYPE svg PUBLIC "-//W3C//DTD SVG 1.1//EN"
 "http://www.w3.org/Graphics/SVG/1.1/DTD/svg11.dtd">
<!-- Generated by graphviz version 8.0.5 (20230430.1635)
 -->
<!-- Title: Tree Pages: 1 -->
<svg width="3041pt" height="550pt"
 viewBox="0.00 0.00 3041.49 549.75" xmlns="http://www.w3.org/2000/svg" xmlns:xlink="http://www.w3.org/1999/xlink">
<g id="graph0" class="graph" transform="scale(1 1) rotate(0) translate(4 545.75)">
<title>Tree</title>
<polygon fill="white" stroke="none" points="-4,4 -4,-545.75 3037.49,-545.75 3037.49,4 -4,4"/>
<!-- 0 -->
<g id="node1" class="node">
<title>0</title>
<ellipse fill="#f6ba9f" stroke="black" cx="1500.89" cy="-499.5" rx="178.89" ry="42.25"/>
<text text-anchor="start" x="1493.39" y="-512.07" font-family="MicrosoftYaHei" font-size="14.00">84</text>
<text text-anchor="start" x="1433.77" y="-494.82" font-family="MicrosoftYaHei" font-size="14.00">friedman_mse=1.582</text>
<text text-anchor="start" x="1382.4" y="-477.57" font-family="MicrosoftYaHei" font-size="14.00">7.您修读高数或数分这门课的原因是</text>
</g>
<!-- 1 -->
<g id="node2" class="node">
<title>1</title>
<ellipse fill="#f49d7e" stroke="black" cx="1245.89" cy="-379" rx="240.94" ry="42.25"/>
<text text-anchor="start" x="1238.39" y="-391.57" font-family="MicrosoftYaHei" font-size="14.00">51</text>
<text text-anchor="start" x="1182.52" y="-374.32" font-family="MicrosoftYaHei" font-size="14.00">friedman_mse=0.89</text>
<text text-anchor="start" x="1083.52" y="-357.07" font-family="MicrosoftYaHei" font-size="14.00">21.您认为影响您使用答案习惯的因素有:课程类别</text>
</g>
<!-- 0&#45;&gt;1 -->
<g id="edge1" class="edge">
<title>0&#45;&gt;1</title>
<path fill="none" stroke="black" d="M1420.91,-461.33C1395.02,-449.3 1366.08,-435.85 1339.31,-423.41"/>
<polygon fill="black" stroke="black" points="1341.1,-419.92 1330.55,-418.88 1338.15,-426.27 1341.1,-419.92"/>
<text text-anchor="middle" x="1338.14" y="-437.68" font-family="MicrosoftYaHei" font-size="14.00">B.认为课程有用, C.未来工作必备, D.感兴趣</text>
</g>
<!-- 14 -->
<g id="node3" class="node">
<title>14</title>
<ellipse fill="#e6d7cf" stroke="black" cx="1805.89" cy="-379" rx="246.24" ry="42.25"/>
<text text-anchor="start" x="1798.39" y="-391.57" font-family="MicrosoftYaHei" font-size="14.00">33</text>
<text text-anchor="start" x="1738.77" y="-374.32" font-family="MicrosoftYaHei" font-size="14.00">friedman_mse=2.143</text>
<text text-anchor="start" x="1639.77" y="-357.07" font-family="MicrosoftYaHei" font-size="14.00">9.问微积分题目的思路时您更倾向于问:老师，助教</text>
</g>
<!-- 0&#45;&gt;14 -->
<g id="edge2" class="edge">
<title>0&#45;&gt;14</title>
<path fill="none" stroke="black" d="M1592.4,-462.94C1625.54,-450.07 1663.28,-435.41 1697.71,-422.03"/>
<polygon fill="black" stroke="black" points="1698.75,-424.99 1706.81,-418.11 1696.22,-418.46 1698.75,-424.99"/>
<text text-anchor="middle" x="1697.73" y="-436.31" font-family="MicrosoftYaHei" font-size="14.00">A.只因学校要求</text>
</g>
<!-- 2 -->
<g id="node4" class="node">
<title>2</title>
<ellipse fill="#f6aa8c" stroke="black" cx="616.89" cy="-258.5" rx="283.36" ry="42.25"/>
<text text-anchor="start" x="609.39" y="-271.07" font-family="MicrosoftYaHei" font-size="14.00">37</text>
<text text-anchor="start" x="549.77" y="-253.82" font-family="MicrosoftYaHei" font-size="14.00">friedman_mse=0.922</text>
<text text-anchor="start" x="424.52" y="-236.57" font-family="MicrosoftYaHei" font-size="14.00">21.您认为影响您使用答案习惯的因素有:是否容易获得答案</text>
</g>
<!-- 1&#45;&gt;2 -->
<g id="edge3" class="edge">
<title>1&#45;&gt;2</title>
<path fill="none" stroke="black" d="M1083.5,-347.4C997.19,-331.14 890.75,-311.09 801.33,-294.25"/>
<polygon fill="black" stroke="black" points="802.27,-290.67 791.79,-292.26 800.97,-297.55 802.27,-290.67"/>
<text text-anchor="middle" x="804.89" y="-306.73" font-family="MicrosoftYaHei" font-size="14.00">否</text>
</g>
<!-- 9 -->
<g id="node5" class="node">
<title>9</title>
<ellipse fill="#e8775d" stroke="black" cx="1245.89" cy="-258.5" rx="251.54" ry="42.25"/>
<text text-anchor="start" x="1238.39" y="-271.07" font-family="MicrosoftYaHei" font-size="14.00">14</text>
<text text-anchor="start" x="1178.77" y="-253.82" font-family="MicrosoftYaHei" font-size="14.00">friedman_mse=0.597</text>
<text text-anchor="start" x="1076.02" y="-236.57" font-family="MicrosoftYaHei" font-size="14.00">17.您觉得作业对您学习这两门课帮助大吗？:微积分</text>
</g>
<!-- 1&#45;&gt;9 -->
<g id="edge4" class="edge">
<title>1&#45;&gt;9</title>
<path fill="none" stroke="black" d="M1245.89,-336.55C1245.89,-328.66 1245.89,-320.3 1245.89,-312.12"/>
<polygon fill="black" stroke="black" points="1249.39,-312.12 1245.89,-302.12 1242.39,-312.12 1249.39,-312.12"/>
<text text-anchor="middle" x="1263.57" y="-312.62" font-family="MicrosoftYaHei" font-size="14.00">是</text>
</g>
<!-- 15 -->
<g id="node16" class="node">
<title>15</title>
<ellipse fill="#d9dce0" stroke="black" cx="1805.89" cy="-258.5" rx="240.94" ry="42.25"/>
<text text-anchor="start" x="1798.39" y="-271.07" font-family="MicrosoftYaHei" font-size="14.00">29</text>
<text text-anchor="start" x="1738.77" y="-253.82" font-family="MicrosoftYaHei" font-size="14.00">friedman_mse=2.007</text>
<text text-anchor="start" x="1643.52" y="-236.57" font-family="MicrosoftYaHei" font-size="14.00">21.您认为影响您使用答案习惯的因素有:课程难度</text>
</g>
<!-- 14&#45;&gt;15 -->
<g id="edge15" class="edge">
<title>14&#45;&gt;15</title>
<path fill="none" stroke="black" d="M1805.89,-336.55C1805.89,-328.66 1805.89,-320.3 1805.89,-312.12"/>
<polygon fill="black" stroke="black" points="1809.39,-312.12 1805.89,-302.12 1802.39,-312.12 1809.39,-312.12"/>
<text text-anchor="middle" x="1788.21" y="-312.62" font-family="MicrosoftYaHei" font-size="14.00">否</text>
</g>
<!-- 22 -->
<g id="node17" class="node">
<title>22</title>
<ellipse fill="#d95847" stroke="black" cx="2675.89" cy="-258.5" rx="357.6" ry="42.25"/>
<text text-anchor="start" x="2672.14" y="-271.07" font-family="MicrosoftYaHei" font-size="14.00">4</text>
<text text-anchor="start" x="2612.52" y="-253.82" font-family="MicrosoftYaHei" font-size="14.00">friedman_mse=0.25</text>
<text text-anchor="start" x="2431.03" y="-236.57" font-family="MicrosoftYaHei" font-size="14.00">10.您在高数学习的过程中，如果不使用/少使用答案，您的学习会更好吗？</text>
</g>
<!-- 14&#45;&gt;22 -->
<g id="edge16" class="edge">
<title>14&#45;&gt;22</title>
<path fill="none" stroke="black" d="M1996.82,-351.99C2125.27,-334.5 2295.71,-311.28 2433.7,-292.49"/>
<polygon fill="black" stroke="black" points="2433.98,-295.85 2443.41,-291.03 2433.03,-288.91 2433.98,-295.85"/>
<text text-anchor="middle" x="2429.28" y="-304.75" font-family="MicrosoftYaHei" font-size="14.00">是</text>
</g>
<!-- 3 -->
<g id="node6" class="node">
<title>3</title>
<ellipse fill="#f29375" stroke="black" cx="178.89" cy="-138" rx="178.89" ry="42.25"/>
<text text-anchor="start" x="171.39" y="-150.57" font-family="MicrosoftYaHei" font-size="14.00">18</text>
<text text-anchor="start" x="111.77" y="-133.32" font-family="MicrosoftYaHei" font-size="14.00">friedman_mse=0.719</text>
<text text-anchor="start" x="60.4" y="-116.07" font-family="MicrosoftYaHei" font-size="14.00">5.请问您上的微积分或分析课程是？</text>
</g>
<!-- 2&#45;&gt;3 -->
<g id="edge5" class="edge">
<title>2&#45;&gt;3</title>
<path fill="none" stroke="black" d="M481.9,-220.98C425.82,-205.81 361.07,-188.29 305.86,-173.35"/>
<polygon fill="black" stroke="black" points="306.88,-169.73 296.31,-170.5 305.05,-176.49 306.88,-169.73"/>
<text text-anchor="middle" x="307.76" y="-186" font-family="MicrosoftYaHei" font-size="14.00">否</text>
</g>
<!-- 6 -->
<g id="node7" class="node">
<title>6</title>
<ellipse fill="#f6bca2" stroke="black" cx="616.89" cy="-138" rx="240.94" ry="42.25"/>
<text text-anchor="start" x="609.39" y="-150.57" font-family="MicrosoftYaHei" font-size="14.00">19</text>
<text text-anchor="start" x="549.77" y="-133.32" font-family="MicrosoftYaHei" font-size="14.00">friedman_mse=0.981</text>
<text text-anchor="start" x="454.52" y="-116.07" font-family="MicrosoftYaHei" font-size="14.00">21.您认为影响您使用答案习惯的因素有:知识基础</text>
</g>
<!-- 2&#45;&gt;6 -->
<g id="edge6" class="edge">
<title>2&#45;&gt;6</title>
<path fill="none" stroke="black" d="M616.89,-216.05C616.89,-208.16 616.89,-199.8 616.89,-191.62"/>
<polygon fill="black" stroke="black" points="620.39,-191.62 616.89,-181.62 613.39,-191.62 620.39,-191.62"/>
<text text-anchor="middle" x="634.57" y="-192.12" font-family="MicrosoftYaHei" font-size="14.00">是</text>
</g>
<!-- 10 -->
<g id="node12" class="node">
<title>10</title>
<polygon fill="#ead3c7" stroke="black" points="1011.52,-167.87 876.27,-167.87 876.27,-108.12 1011.52,-108.12 1011.52,-167.87"/>
<text text-anchor="start" x="940.14" y="-150.57" font-family="MicrosoftYaHei" font-size="14.00">2</text>
<text text-anchor="start" x="884.27" y="-133.32" font-family="MicrosoftYaHei" font-size="14.00">friedman_mse=0.0</text>
<text text-anchor="start" x="934.14" y="-116.07" font-family="MicrosoftYaHei" font-size="14.00">4.0</text>
</g>
<!-- 9&#45;&gt;10 -->
<g id="edge11" class="edge">
<title>9&#45;&gt;10</title>
<path fill="none" stroke="black" d="M1127.45,-220.82C1092.67,-208.99 1054.87,-195.07 1020.89,-180.25 1015.89,-178.07 1010.78,-175.69 1005.68,-173.21"/>
<polygon fill="black" stroke="black" points="1007.44,-169.67 996.94,-168.33 1004.31,-175.93 1007.44,-169.67"/>
<text text-anchor="middle" x="1003.84" y="-187.37" font-family="MicrosoftYaHei" font-size="14.00">&lt;=4.5</text>
</g>
<!-- 11 -->
<g id="node13" class="node">
<title>11</title>
<ellipse fill="#de624e" stroke="black" cx="1270.89" cy="-138" rx="240.94" ry="42.25"/>
<text text-anchor="start" x="1263.39" y="-150.57" font-family="MicrosoftYaHei" font-size="14.00">12</text>
<text text-anchor="start" x="1207.52" y="-133.32" font-family="MicrosoftYaHei" font-size="14.00">friedman_mse=0.41</text>
<text text-anchor="start" x="1108.52" y="-116.07" font-family="MicrosoftYaHei" font-size="14.00">21.您认为影响您使用答案习惯的因素有:课程难度</text>
</g>
<!-- 9&#45;&gt;11 -->
<g id="edge12" class="edge">
<title>9&#45;&gt;11</title>
<path fill="none" stroke="black" d="M1254.63,-216.05C1256.32,-208.07 1258.1,-199.61 1259.85,-191.34"/>
<polygon fill="black" stroke="black" points="1263.47,-192.13 1262.11,-181.62 1256.62,-190.68 1263.47,-192.13"/>
<text text-anchor="middle" x="1275.76" y="-196.89" font-family="MicrosoftYaHei" font-size="14.00">&gt;4.5</text>
</g>
<!-- 4 -->
<g id="node8" class="node">
<title>4</title>
<polygon fill="#f59e7f" stroke="black" points="174.02,-59.75 23.77,-59.75 23.77,0 174.02,0 174.02,-59.75"/>
<text text-anchor="start" x="91.39" y="-42.45" font-family="MicrosoftYaHei" font-size="14.00">16</text>
<text text-anchor="start" x="31.77" y="-25.2" font-family="MicrosoftYaHei" font-size="14.00">friedman_mse=0.652</text>
<text text-anchor="start" x="81.64" y="-7.95" font-family="MicrosoftYaHei" font-size="14.00">4.812</text>
</g>
<!-- 3&#45;&gt;4 -->
<g id="edge7" class="edge">
<title>3&#45;&gt;4</title>
<path fill="none" stroke="black" d="M147.96,-95.97C141.17,-86.96 134.01,-77.46 127.32,-68.58"/>
<polygon fill="black" stroke="black" points="129.63,-66.84 120.82,-60.96 124.04,-71.05 129.63,-66.84"/>
<text text-anchor="middle" x="117.34" y="-80.04" font-family="MicrosoftYaHei" font-size="14.00">B.高等数学, C.高等微积分（22级）</text>
</g>
<!-- 5 -->
<g id="node9" class="node">
<title>5</title>
<polygon fill="#b30326" stroke="black" points="327.52,-59.75 192.27,-59.75 192.27,0 327.52,0 327.52,-59.75"/>
<text text-anchor="start" x="256.14" y="-42.45" font-family="MicrosoftYaHei" font-size="14.00">2</text>
<text text-anchor="start" x="200.27" y="-25.2" font-family="MicrosoftYaHei" font-size="14.00">friedman_mse=0.0</text>
<text text-anchor="start" x="250.14" y="-7.95" font-family="MicrosoftYaHei" font-size="14.00">6.0</text>
</g>
<!-- 3&#45;&gt;5 -->
<g id="edge8" class="edge">
<title>3&#45;&gt;5</title>
<path fill="none" stroke="black" d="M210.21,-95.97C217.09,-86.96 224.34,-77.46 231.11,-68.58"/>
<polygon fill="black" stroke="black" points="234.41,-71.03 237.69,-60.96 228.84,-66.79 234.41,-71.03"/>
<text text-anchor="middle" x="241.02" y="-80.06" font-family="MicrosoftYaHei" font-size="14.00">A.数学分析</text>
</g>
<!-- 7 -->
<g id="node10" class="node">
<title>7</title>
<polygon fill="#f7b092" stroke="black" points="608.02,-59.75 457.77,-59.75 457.77,0 608.02,0 608.02,-59.75"/>
<text text-anchor="start" x="525.39" y="-42.45" font-family="MicrosoftYaHei" font-size="14.00">15</text>
<text text-anchor="start" x="465.77" y="-25.2" font-family="MicrosoftYaHei" font-size="14.00">friedman_mse=0.773</text>
<text text-anchor="start" x="523.14" y="-7.95" font-family="MicrosoftYaHei" font-size="14.00">4.6</text>
</g>
<!-- 6&#45;&gt;7 -->
<g id="edge9" class="edge">
<title>6&#45;&gt;7</title>
<path fill="none" stroke="black" d="M584.17,-95.67C577.13,-86.76 569.71,-77.39 562.78,-68.63"/>
<polygon fill="black" stroke="black" points="564.99,-66.78 556.03,-61.12 559.5,-71.13 564.99,-66.78"/>
<text text-anchor="middle" x="553.14" y="-78.77" font-family="MicrosoftYaHei" font-size="14.00">否</text>
</g>
<!-- 8 -->
<g id="node11" class="node">
<title>8</title>
<polygon fill="#dddcdb" stroke="black" points="776.02,-59.75 625.77,-59.75 625.77,0 776.02,0 776.02,-59.75"/>
<text text-anchor="start" x="697.14" y="-42.45" font-family="MicrosoftYaHei" font-size="14.00">4</text>
<text text-anchor="start" x="633.77" y="-25.2" font-family="MicrosoftYaHei" font-size="14.00">friedman_mse=1.188</text>
<text text-anchor="start" x="687.39" y="-7.95" font-family="MicrosoftYaHei" font-size="14.00">3.75</text>
</g>
<!-- 6&#45;&gt;8 -->
<g id="edge10" class="edge">
<title>6&#45;&gt;8</title>
<path fill="none" stroke="black" d="M649.61,-95.67C656.66,-86.76 664.07,-77.39 671,-68.63"/>
<polygon fill="black" stroke="black" points="674.28,-71.13 677.75,-61.12 668.8,-66.78 674.28,-71.13"/>
<text text-anchor="middle" x="680.64" y="-78.77" font-family="MicrosoftYaHei" font-size="14.00">是</text>
</g>
<!-- 12 -->
<g id="node14" class="node">
<title>12</title>
<polygon fill="#f6b79c" stroke="black" points="1261.27,-59.75 1118.52,-59.75 1118.52,0 1261.27,0 1261.27,-59.75"/>
<text text-anchor="start" x="1186.14" y="-42.45" font-family="MicrosoftYaHei" font-size="14.00">2</text>
<text text-anchor="start" x="1126.52" y="-25.2" font-family="MicrosoftYaHei" font-size="14.00">friedman_mse=0.25</text>
<text text-anchor="start" x="1180.14" y="-7.95" font-family="MicrosoftYaHei" font-size="14.00">4.5</text>
</g>
<!-- 11&#45;&gt;12 -->
<g id="edge13" class="edge">
<title>11&#45;&gt;12</title>
<path fill="none" stroke="black" d="M1239.34,-95.67C1232.55,-86.76 1225.39,-77.39 1218.71,-68.63"/>
<polygon fill="black" stroke="black" points="1221.06,-66.94 1212.21,-61.12 1215.49,-71.19 1221.06,-66.94"/>
<text text-anchor="middle" x="1208.88" y="-78.72" font-family="MicrosoftYaHei" font-size="14.00">否</text>
</g>
<!-- 13 -->
<g id="node15" class="node">
<title>13</title>
<polygon fill="#d24b3f" stroke="black" points="1422.27,-59.75 1279.52,-59.75 1279.52,0 1422.27,0 1422.27,-59.75"/>
<text text-anchor="start" x="1343.39" y="-42.45" font-family="MicrosoftYaHei" font-size="14.00">10</text>
<text text-anchor="start" x="1287.52" y="-25.2" font-family="MicrosoftYaHei" font-size="14.00">friedman_mse=0.24</text>
<text text-anchor="start" x="1341.14" y="-7.95" font-family="MicrosoftYaHei" font-size="14.00">5.6</text>
</g>
<!-- 11&#45;&gt;13 -->
<g id="edge14" class="edge">
<title>11&#45;&gt;13</title>
<path fill="none" stroke="black" d="M1302.05,-95.67C1308.76,-86.76 1315.82,-77.39 1322.43,-68.63"/>
<polygon fill="black" stroke="black" points="1325.62,-71.21 1328.85,-61.12 1320.03,-66.99 1325.62,-71.21"/>
<text text-anchor="middle" x="1332.32" y="-78.7" font-family="MicrosoftYaHei" font-size="14.00">是</text>
</g>
<!-- 16 -->
<g id="node18" class="node">
<title>16</title>
<ellipse fill="#7598f6" stroke="black" cx="1780.89" cy="-138" rx="251.54" ry="42.25"/>
<text text-anchor="start" x="1777.14" y="-150.57" font-family="MicrosoftYaHei" font-size="14.00">3</text>
<text text-anchor="start" x="1713.77" y="-133.32" font-family="MicrosoftYaHei" font-size="14.00">friedman_mse=1.556</text>
<text text-anchor="start" x="1611.02" y="-116.07" font-family="MicrosoftYaHei" font-size="14.00">17.您觉得作业对您学习这两门课帮助大吗？:微积分</text>
</g>
<!-- 15&#45;&gt;16 -->
<g id="edge17" class="edge">
<title>15&#45;&gt;16</title>
<path fill="none" stroke="black" d="M1797.15,-216.05C1795.46,-208.07 1793.68,-199.61 1791.93,-191.34"/>
<polygon fill="black" stroke="black" points="1795.16,-190.68 1789.67,-181.62 1788.31,-192.13 1795.16,-190.68"/>
<text text-anchor="middle" x="1776.02" y="-195.39" font-family="MicrosoftYaHei" font-size="14.00">否</text>
</g>
<!-- 19 -->
<g id="node19" class="node">
<title>19</title>
<ellipse fill="#e2d9d4" stroke="black" cx="2290.89" cy="-138" rx="240.94" ry="42.25"/>
<text text-anchor="start" x="2283.39" y="-150.57" font-family="MicrosoftYaHei" font-size="14.00">26</text>
<text text-anchor="start" x="2223.77" y="-133.32" font-family="MicrosoftYaHei" font-size="14.00">friedman_mse=1.822</text>
<text text-anchor="start" x="2128.52" y="-116.07" font-family="MicrosoftYaHei" font-size="14.00">21.您认为影响您使用答案习惯的因素有:作业难度</text>
</g>
<!-- 15&#45;&gt;19 -->
<g id="edge18" class="edge">
<title>15&#45;&gt;19</title>
<path fill="none" stroke="black" d="M1944.55,-223.62C2006.2,-208.56 2078.9,-190.79 2141.73,-175.44"/>
<polygon fill="black" stroke="black" points="2142.25,-178.68 2151.13,-172.9 2140.59,-171.88 2142.25,-178.68"/>
<text text-anchor="middle" x="2139.15" y="-188.1" font-family="MicrosoftYaHei" font-size="14.00">是</text>
</g>
<!-- 23 -->
<g id="node24" class="node">
<title>23</title>
<ellipse fill="#e26a53" stroke="black" cx="2675.89" cy="-138" rx="125.86" ry="42.25"/>
<text text-anchor="start" x="2672.14" y="-150.57" font-family="MicrosoftYaHei" font-size="14.00">3</text>
<text text-anchor="start" x="2608.77" y="-133.32" font-family="MicrosoftYaHei" font-size="14.00">friedman_mse=0.222</text>
<text text-anchor="start" x="2594.89" y="-116.07" font-family="MicrosoftYaHei" font-size="14.00">6.您之前学过微积分吗？</text>
</g>
<!-- 22&#45;&gt;23 -->
<g id="edge23" class="edge">
<title>22&#45;&gt;23</title>
<path fill="none" stroke="black" d="M2675.89,-216.05C2675.89,-208.16 2675.89,-199.8 2675.89,-191.62"/>
<polygon fill="black" stroke="black" points="2679.39,-191.62 2675.89,-181.62 2672.39,-191.62 2679.39,-191.62"/>
<text text-anchor="middle" x="2658.21" y="-193.62" font-family="MicrosoftYaHei" font-size="14.00">不，答案促进思考, 其他</text>
</g>
<!-- 26 -->
<g id="node25" class="node">
<title>26</title>
<polygon fill="#b30326" stroke="black" points="2954.52,-167.87 2819.27,-167.87 2819.27,-108.12 2954.52,-108.12 2954.52,-167.87"/>
<text text-anchor="start" x="2883.14" y="-150.57" font-family="MicrosoftYaHei" font-size="14.00">1</text>
<text text-anchor="start" x="2827.27" y="-133.32" font-family="MicrosoftYaHei" font-size="14.00">friedman_mse=0.0</text>
<text text-anchor="start" x="2877.14" y="-116.07" font-family="MicrosoftYaHei" font-size="14.00">6.0</text>
</g>
<!-- 22&#45;&gt;26 -->
<g id="edge24" class="edge">
<title>22&#45;&gt;26</title>
<path fill="none" stroke="black" d="M2748.5,-216.72C2773.55,-202.65 2801.35,-187.04 2825.41,-173.52"/>
<polygon fill="black" stroke="black" points="2826.78,-176.21 2833.79,-168.26 2823.35,-170.11 2826.78,-176.21"/>
<text text-anchor="middle" x="2828.03" y="-186.16" font-family="MicrosoftYaHei" font-size="14.00">是，少用答案更好</text>
</g>
<!-- 17 -->
<g id="node20" class="node">
<title>17</title>
<polygon fill="#3a4cc0" stroke="black" points="1773.27,-59.75 1630.52,-59.75 1630.52,0 1773.27,0 1773.27,-59.75"/>
<text text-anchor="start" x="1698.14" y="-42.45" font-family="MicrosoftYaHei" font-size="14.00">2</text>
<text text-anchor="start" x="1638.52" y="-25.2" font-family="MicrosoftYaHei" font-size="14.00">friedman_mse=0.25</text>
<text text-anchor="start" x="1692.14" y="-7.95" font-family="MicrosoftYaHei" font-size="14.00">1.5</text>
</g>
<!-- 16&#45;&gt;17 -->
<g id="edge19" class="edge">
<title>16&#45;&gt;17</title>
<path fill="none" stroke="black" d="M1750.12,-95.67C1743.56,-86.85 1736.66,-77.59 1730.2,-68.91"/>
<polygon fill="black" stroke="black" points="1732.44,-67.05 1723.66,-61.12 1726.82,-71.23 1732.44,-67.05"/>
<text text-anchor="middle" x="1720.03" y="-80.18" font-family="MicrosoftYaHei" font-size="14.00">&lt;=5.5</text>
</g>
<!-- 18 -->
<g id="node21" class="node">
<title>18</title>
<polygon fill="#ead3c7" stroke="black" points="1926.52,-59.75 1791.27,-59.75 1791.27,0 1926.52,0 1926.52,-59.75"/>
<text text-anchor="start" x="1855.14" y="-42.45" font-family="MicrosoftYaHei" font-size="14.00">1</text>
<text text-anchor="start" x="1799.27" y="-25.2" font-family="MicrosoftYaHei" font-size="14.00">friedman_mse=0.0</text>
<text text-anchor="start" x="1849.14" y="-7.95" font-family="MicrosoftYaHei" font-size="14.00">4.0</text>
</g>
<!-- 16&#45;&gt;18 -->
<g id="edge20" class="edge">
<title>16&#45;&gt;18</title>
<path fill="none" stroke="black" d="M1811.27,-95.67C1817.75,-86.85 1824.56,-77.59 1830.94,-68.91"/>
<polygon fill="black" stroke="black" points="1834.3,-71.25 1837.4,-61.12 1828.66,-67.1 1834.3,-71.25"/>
<text text-anchor="middle" x="1841.17" y="-80.15" font-family="MicrosoftYaHei" font-size="14.00">&gt;5.5</text>
</g>
<!-- 20 -->
<g id="node22" class="node">
<title>20</title>
<polygon fill="#d95847" stroke="black" points="2270.27,-59.75 2127.52,-59.75 2127.52,0 2270.27,0 2270.27,-59.75"/>
<text text-anchor="start" x="2195.14" y="-42.45" font-family="MicrosoftYaHei" font-size="14.00">2</text>
<text text-anchor="start" x="2135.52" y="-25.2" font-family="MicrosoftYaHei" font-size="14.00">friedman_mse=0.25</text>
<text text-anchor="start" x="2189.14" y="-7.95" font-family="MicrosoftYaHei" font-size="14.00">5.5</text>
</g>
<!-- 19&#45;&gt;20 -->
<g id="edge21" class="edge">
<title>19&#45;&gt;20</title>
<path fill="none" stroke="black" d="M2255.32,-95.97C2247.35,-86.77 2238.93,-77.06 2231.1,-68.03"/>
<polygon fill="black" stroke="black" points="2233.3,-66.22 2224.1,-60.96 2228.01,-70.81 2233.3,-66.22"/>
<text text-anchor="middle" x="2222.33" y="-78.72" font-family="MicrosoftYaHei" font-size="14.00">否</text>
</g>
<!-- 21 -->
<g id="node23" class="node">
<title>21</title>
<polygon fill="#dadcdf" stroke="black" points="2439.02,-59.75 2288.77,-59.75 2288.77,0 2439.02,0 2439.02,-59.75"/>
<text text-anchor="start" x="2356.39" y="-42.45" font-family="MicrosoftYaHei" font-size="14.00">24</text>
<text text-anchor="start" x="2296.77" y="-25.2" font-family="MicrosoftYaHei" font-size="14.00">friedman_mse=1.707</text>
<text text-anchor="start" x="2346.64" y="-7.95" font-family="MicrosoftYaHei" font-size="14.00">3.708</text>
</g>
<!-- 19&#45;&gt;21 -->
<g id="edge22" class="edge">
<title>19&#45;&gt;21</title>
<path fill="none" stroke="black" d="M2319.32,-95.67C2325.38,-86.85 2331.76,-77.59 2337.73,-68.91"/>
<polygon fill="black" stroke="black" points="2340.99,-71.34 2343.78,-61.12 2335.23,-67.37 2340.99,-71.34"/>
<text text-anchor="middle" x="2348.32" y="-78.52" font-family="MicrosoftYaHei" font-size="14.00">是</text>
</g>
<!-- 24 -->
<g id="node26" class="node">
<title>24</title>
<polygon fill="#b30326" stroke="black" points="2666.52,-59.75 2531.27,-59.75 2531.27,0 2666.52,0 2666.52,-59.75"/>
<text text-anchor="start" x="2595.14" y="-42.45" font-family="MicrosoftYaHei" font-size="14.00">1</text>
<text text-anchor="start" x="2539.27" y="-25.2" font-family="MicrosoftYaHei" font-size="14.00">friedman_mse=0.0</text>
<text text-anchor="start" x="2589.14" y="-7.95" font-family="MicrosoftYaHei" font-size="14.00">6.0</text>
</g>
<!-- 23&#45;&gt;24 -->
<g id="edge25" class="edge">
<title>23&#45;&gt;24</title>
<path fill="none" stroke="black" d="M2646.56,-96.58C2639.93,-87.44 2632.91,-77.77 2626.36,-68.74"/>
<polygon fill="black" stroke="black" points="2628.71,-67.01 2620,-60.97 2623.04,-71.12 2628.71,-67.01"/>
<text text-anchor="middle" x="2616.07" y="-79.99" font-family="MicrosoftYaHei" font-size="14.00">A.接触过竞赛, C.没有学过</text>
</g>
<!-- 25 -->
<g id="node27" class="node">
<title>25</title>
<polygon fill="#f08d6f" stroke="black" points="2819.52,-59.75 2684.27,-59.75 2684.27,0 2819.52,0 2819.52,-59.75"/>
<text text-anchor="start" x="2748.14" y="-42.45" font-family="MicrosoftYaHei" font-size="14.00">2</text>
<text text-anchor="start" x="2692.27" y="-25.2" font-family="MicrosoftYaHei" font-size="14.00">friedman_mse=0.0</text>
<text text-anchor="start" x="2742.14" y="-7.95" font-family="MicrosoftYaHei" font-size="14.00">5.0</text>
</g>
<!-- 23&#45;&gt;25 -->
<g id="edge26" class="edge">
<title>23&#45;&gt;25</title>
<path fill="none" stroke="black" d="M2704.84,-96.58C2711.38,-87.44 2718.31,-77.77 2724.77,-68.74"/>
<polygon fill="black" stroke="black" points="2728.08,-71.14 2731.05,-60.97 2722.39,-67.06 2728.08,-71.14"/>
<text text-anchor="middle" x="2735.13" y="-79.96" font-family="MicrosoftYaHei" font-size="14.00">B.简单预习过</text>
</g>
</g>
</svg>
