<?xml version="1.0" encoding="UTF-8" standalone="no"?>
<!DOCTYPE svg PUBLIC "-//W3C//DTD SVG 1.1//EN"
 "http://www.w3.org/Graphics/SVG/1.1/DTD/svg11.dtd">
<!-- Generated by graphviz version 8.0.5 (20230430.1635)
 -->
<!-- Title: Tree Pages: 1 -->
<svg width="4458pt" height="550pt"
 viewBox="0.00 0.00 4458.23 549.75" xmlns="http://www.w3.org/2000/svg" xmlns:xlink="http://www.w3.org/1999/xlink">
<g id="graph0" class="graph" transform="scale(1 1) rotate(0) translate(4 545.75)">
<title>Tree</title>
<polygon fill="white" stroke="none" points="-4,4 -4,-545.75 4454.23,-545.75 4454.23,4 -4,4"/>
<!-- 0 -->
<g id="node1" class="node">
<title>0</title>
<ellipse fill="#f7ae91" stroke="black" cx="2334.6" cy="-499.5" rx="309.88" ry="42.25"/>
<text text-anchor="start" x="2327.1" y="-512.07" font-family="MicrosoftYaHei" font-size="14.00">84</text>
<text text-anchor="start" x="2267.48" y="-494.82" font-family="MicrosoftYaHei" font-size="14.00">friedman_mse=1.582</text>
<text text-anchor="start" x="2123.49" y="-477.57" font-family="MicrosoftYaHei" font-size="14.00">7.您修读高数或数分这门课的原因是_A.如果不是必修我才不学呢</text>
</g>
<!-- 1 -->
<g id="node2" class="node">
<title>1</title>
<ellipse fill="#f29375" stroke="black" cx="1441.6" cy="-379" rx="368.74" ry="42.25"/>
<text text-anchor="start" x="1434.1" y="-391.57" font-family="MicrosoftYaHei" font-size="14.00">51</text>
<text text-anchor="start" x="1378.23" y="-374.32" font-family="MicrosoftYaHei" font-size="14.00">friedman_mse=0.89</text>
<text text-anchor="start" x="1188.86" y="-357.07" font-family="MicrosoftYaHei" font-size="14.00">9.问微积分题目的思路时您更倾向于问:搜索引擎（包括Slader， ChatGPT等）</text>
</g>
<!-- 0&#45;&gt;1 -->
<g id="edge1" class="edge">
<title>0&#45;&gt;1</title>
<path fill="none" stroke="black" d="M2115.01,-469.36C1986.54,-452.31 1823.94,-430.73 1690.7,-413.05"/>
<polygon fill="black" stroke="black" points="1691.32,-409.47 1680.94,-411.63 1690.4,-416.41 1691.32,-409.47"/>
<text text-anchor="middle" x="1695.14" y="-426.8" font-family="MicrosoftYaHei" font-size="14.00">&lt;=0.5</text>
</g>
<!-- 16 -->
<g id="node3" class="node">
<title>16</title>
<ellipse fill="#eecfbe" stroke="black" cx="2941.6" cy="-379" rx="246.24" ry="42.25"/>
<text text-anchor="start" x="2934.1" y="-391.57" font-family="MicrosoftYaHei" font-size="14.00">33</text>
<text text-anchor="start" x="2874.48" y="-374.32" font-family="MicrosoftYaHei" font-size="14.00">friedman_mse=2.143</text>
<text text-anchor="start" x="2775.49" y="-357.07" font-family="MicrosoftYaHei" font-size="14.00">9.问微积分题目的思路时您更倾向于问:老师，助教</text>
</g>
<!-- 0&#45;&gt;16 -->
<g id="edge2" class="edge">
<title>0&#45;&gt;16</title>
<path fill="none" stroke="black" d="M2509.77,-464.3C2591.71,-448.31 2688.95,-429.32 2770.39,-413.42"/>
<polygon fill="black" stroke="black" points="2770.6,-416.75 2779.75,-411.4 2769.26,-409.88 2770.6,-416.75"/>
<text text-anchor="middle" x="2766.78" y="-427.46" font-family="MicrosoftYaHei" font-size="14.00">&gt;0.5</text>
</g>
<!-- 2 -->
<g id="node4" class="node">
<title>2</title>
<ellipse fill="#f59e7f" stroke="black" cx="565.6" cy="-258.5" rx="235.63" ry="42.25"/>
<text text-anchor="start" x="558.1" y="-271.07" font-family="MicrosoftYaHei" font-size="14.00">38</text>
<text text-anchor="start" x="498.48" y="-253.82" font-family="MicrosoftYaHei" font-size="14.00">friedman_mse=0.953</text>
<text text-anchor="start" x="406.99" y="-236.57" font-family="MicrosoftYaHei" font-size="14.00">5.请问您上的微积分或分析课程是？_A.数学分析</text>
</g>
<!-- 1&#45;&gt;2 -->
<g id="edge3" class="edge">
<title>1&#45;&gt;2</title>
<path fill="none" stroke="black" d="M1192.75,-347.49C1083.68,-333.78 954.21,-317.05 837.6,-300.75 810.13,-296.91 781.12,-292.69 752.69,-288.46"/>
<polygon fill="black" stroke="black" points="753.23,-284.85 742.83,-286.84 752.2,-291.77 753.23,-284.85"/>
<text text-anchor="middle" x="756.7" y="-302.25" font-family="MicrosoftYaHei" font-size="14.00">&lt;=0.5</text>
</g>
<!-- 9 -->
<g id="node5" class="node">
<title>9</title>
<ellipse fill="#e46e56" stroke="black" cx="1441.6" cy="-258.5" rx="594.65" ry="42.25"/>
<text text-anchor="start" x="1434.1" y="-271.07" font-family="MicrosoftYaHei" font-size="14.00">13</text>
<text text-anchor="start" x="1374.48" y="-253.82" font-family="MicrosoftYaHei" font-size="14.00">friedman_mse=0.485</text>
<text text-anchor="start" x="1029.12" y="-236.57" font-family="MicrosoftYaHei" font-size="14.00">10.您在高数学习的过程中，如果不使用/少使用答案，您的学习会更好吗？_A.肯定不会，答案的提示对我学会微积分帮助很大</text>
</g>
<!-- 1&#45;&gt;9 -->
<g id="edge4" class="edge">
<title>1&#45;&gt;9</title>
<path fill="none" stroke="black" d="M1441.6,-336.55C1441.6,-328.66 1441.6,-320.3 1441.6,-312.12"/>
<polygon fill="black" stroke="black" points="1445.1,-312.12 1441.6,-302.12 1438.1,-312.12 1445.1,-312.12"/>
<text text-anchor="middle" x="1459.28" y="-314.12" font-family="MicrosoftYaHei" font-size="14.00">&gt;0.5</text>
</g>
<!-- 17 -->
<g id="node18" class="node">
<title>17</title>
<ellipse fill="#e6d7cf" stroke="black" cx="2941.6" cy="-258.5" rx="573.44" ry="42.25"/>
<text text-anchor="start" x="2934.1" y="-271.07" font-family="MicrosoftYaHei" font-size="14.00">29</text>
<text text-anchor="start" x="2874.48" y="-253.82" font-family="MicrosoftYaHei" font-size="14.00">friedman_mse=2.007</text>
<text text-anchor="start" x="2544.12" y="-236.57" font-family="MicrosoftYaHei" font-size="14.00">10.您在高数学习的过程中，如果不使用/少使用答案，您的学习会更好吗？_B.是的，少使用答案更加能锻炼我的解题能力</text>
</g>
<!-- 16&#45;&gt;17 -->
<g id="edge17" class="edge">
<title>16&#45;&gt;17</title>
<path fill="none" stroke="black" d="M2941.6,-336.55C2941.6,-328.66 2941.6,-320.3 2941.6,-312.12"/>
<polygon fill="black" stroke="black" points="2945.1,-312.12 2941.6,-302.12 2938.1,-312.12 2945.1,-312.12"/>
<text text-anchor="middle" x="2923.93" y="-314.12" font-family="MicrosoftYaHei" font-size="14.00">&lt;=0.5</text>
</g>
<!-- 24 -->
<g id="node19" class="node">
<title>24</title>
<ellipse fill="#d65243" stroke="black" cx="4082.6" cy="-258.5" rx="235.63" ry="42.25"/>
<text text-anchor="start" x="4078.85" y="-271.07" font-family="MicrosoftYaHei" font-size="14.00">4</text>
<text text-anchor="start" x="4019.23" y="-253.82" font-family="MicrosoftYaHei" font-size="14.00">friedman_mse=0.25</text>
<text text-anchor="start" x="3923.99" y="-236.57" font-family="MicrosoftYaHei" font-size="14.00">5.请问您上的微积分或分析课程是？_A.数学分析</text>
</g>
<!-- 16&#45;&gt;24 -->
<g id="edge18" class="edge">
<title>16&#45;&gt;24</title>
<path fill="none" stroke="black" d="M3150.55,-356.3C3354.65,-335.1 3663.78,-303 3869.35,-281.65"/>
<polygon fill="black" stroke="black" points="3869.7,-285.03 3879.28,-280.51 3868.97,-278.06 3869.7,-285.03"/>
<text text-anchor="middle" x="3864.52" y="-295.25" font-family="MicrosoftYaHei" font-size="14.00">&gt;0.5</text>
</g>
<!-- 3 -->
<g id="node6" class="node">
<title>3</title>
<ellipse fill="#f6a789" stroke="black" cx="182.6" cy="-138" rx="182.6" ry="42.25"/>
<text text-anchor="start" x="175.1" y="-150.57" font-family="MicrosoftYaHei" font-size="14.00">30</text>
<text text-anchor="start" x="115.48" y="-133.32" font-family="MicrosoftYaHei" font-size="14.00">friedman_mse=0.712</text>
<text text-anchor="start" x="61.48" y="-116.07" font-family="MicrosoftYaHei" font-size="14.00">6.您之前学过微积分吗？_C.没有学过</text>
</g>
<!-- 2&#45;&gt;3 -->
<g id="edge5" class="edge">
<title>2&#45;&gt;3</title>
<path fill="none" stroke="black" d="M448.87,-221.38C401.93,-206.86 347.87,-190.13 300.79,-175.56"/>
<polygon fill="black" stroke="black" points="302.13,-172.01 291.54,-172.39 300.06,-178.69 302.13,-172.01"/>
<text text-anchor="middle" x="302.2" y="-189.83" font-family="MicrosoftYaHei" font-size="14.00">&lt;=0.5</text>
</g>
<!-- 6 -->
<g id="node7" class="node">
<title>6</title>
<ellipse fill="#e8775d" stroke="black" cx="565.6" cy="-138" rx="182.6" ry="42.25"/>
<text text-anchor="start" x="561.85" y="-150.57" font-family="MicrosoftYaHei" font-size="14.00">8</text>
<text text-anchor="start" x="498.48" y="-133.32" font-family="MicrosoftYaHei" font-size="14.00">friedman_mse=1.609</text>
<text text-anchor="start" x="444.48" y="-116.07" font-family="MicrosoftYaHei" font-size="14.00">6.您之前学过微积分吗？_C.没有学过</text>
</g>
<!-- 2&#45;&gt;6 -->
<g id="edge6" class="edge">
<title>2&#45;&gt;6</title>
<path fill="none" stroke="black" d="M565.6,-216.05C565.6,-208.16 565.6,-199.8 565.6,-191.62"/>
<polygon fill="black" stroke="black" points="569.1,-191.62 565.6,-181.62 562.1,-191.62 569.1,-191.62"/>
<text text-anchor="middle" x="583.28" y="-193.62" font-family="MicrosoftYaHei" font-size="14.00">&gt;0.5</text>
</g>
<!-- 10 -->
<g id="node12" class="node">
<title>10</title>
<ellipse fill="#f19072" stroke="black" cx="1001.6" cy="-138" rx="235.63" ry="42.25"/>
<text text-anchor="start" x="997.85" y="-150.57" font-family="MicrosoftYaHei" font-size="14.00">7</text>
<text text-anchor="start" x="934.48" y="-133.32" font-family="MicrosoftYaHei" font-size="14.00">friedman_mse=0.408</text>
<text text-anchor="start" x="842.99" y="-116.07" font-family="MicrosoftYaHei" font-size="14.00">5.请问您上的微积分或分析课程是？_A.数学分析</text>
</g>
<!-- 9&#45;&gt;10 -->
<g id="edge11" class="edge">
<title>9&#45;&gt;10</title>
<path fill="none" stroke="black" d="M1291.72,-217.13C1242.99,-204.01 1189.15,-189.51 1141.2,-176.6"/>
<polygon fill="black" stroke="black" points="1142.32,-173 1131.75,-173.78 1140.5,-179.76 1142.32,-173"/>
<text text-anchor="middle" x="1143.22" y="-190.77" font-family="MicrosoftYaHei" font-size="14.00">&lt;=0.5</text>
</g>
<!-- 13 -->
<g id="node13" class="node">
<title>13</title>
<ellipse fill="#cc3f39" stroke="black" cx="1469.6" cy="-138" rx="214.42" ry="42.25"/>
<text text-anchor="start" x="1465.85" y="-150.57" font-family="MicrosoftYaHei" font-size="14.00">6</text>
<text text-anchor="start" x="1402.48" y="-133.32" font-family="MicrosoftYaHei" font-size="14.00">friedman_mse=0.222</text>
<text text-anchor="start" x="1325.98" y="-116.07" font-family="MicrosoftYaHei" font-size="14.00">9.问微积分题目的思路时您更倾向于问:同学</text>
</g>
<!-- 9&#45;&gt;13 -->
<g id="edge12" class="edge">
<title>9&#45;&gt;13</title>
<path fill="none" stroke="black" d="M1451.4,-216.05C1453.3,-207.98 1455.33,-199.42 1457.3,-191.06"/>
<polygon fill="black" stroke="black" points="1460.87,-192.16 1459.77,-181.62 1454.06,-190.55 1460.87,-192.16"/>
<text text-anchor="middle" x="1472.91" y="-197.22" font-family="MicrosoftYaHei" font-size="14.00">&gt;0.5</text>
</g>
<!-- 4 -->
<g id="node8" class="node">
<title>4</title>
<polygon fill="#f5c0a7" stroke="black" points="171.98,-59.75 29.23,-59.75 29.23,0 171.98,0 171.98,-59.75"/>
<text text-anchor="start" x="93.1" y="-42.45" font-family="MicrosoftYaHei" font-size="14.00">10</text>
<text text-anchor="start" x="37.23" y="-25.2" font-family="MicrosoftYaHei" font-size="14.00">friedman_mse=0.76</text>
<text text-anchor="start" x="90.85" y="-7.95" font-family="MicrosoftYaHei" font-size="14.00">4.2</text>
</g>
<!-- 3&#45;&gt;4 -->
<g id="edge7" class="edge">
<title>3&#45;&gt;4</title>
<path fill="none" stroke="black" d="M150.9,-95.97C143.94,-86.96 136.6,-77.46 129.74,-68.58"/>
<polygon fill="black" stroke="black" points="131.96,-66.73 123.08,-60.96 126.42,-71.01 131.96,-66.73"/>
<text text-anchor="middle" x="119.9" y="-80.08" font-family="MicrosoftYaHei" font-size="14.00">&lt;=0.5</text>
</g>
<!-- 5 -->
<g id="node9" class="node">
<title>5</title>
<polygon fill="#f39879" stroke="black" points="340.73,-59.75 190.48,-59.75 190.48,0 340.73,0 340.73,-59.75"/>
<text text-anchor="start" x="258.1" y="-42.45" font-family="MicrosoftYaHei" font-size="14.00">20</text>
<text text-anchor="start" x="198.48" y="-25.2" font-family="MicrosoftYaHei" font-size="14.00">friedman_mse=0.587</text>
<text text-anchor="start" x="252.1" y="-7.95" font-family="MicrosoftYaHei" font-size="14.00">4.75</text>
</g>
<!-- 3&#45;&gt;5 -->
<g id="edge8" class="edge">
<title>3&#45;&gt;5</title>
<path fill="none" stroke="black" d="M214.69,-95.97C221.74,-86.96 229.17,-77.46 236.11,-68.58"/>
<polygon fill="black" stroke="black" points="239.45,-70.99 242.86,-60.96 233.94,-66.68 239.45,-70.99"/>
<text text-anchor="middle" x="245.89" y="-80.1" font-family="MicrosoftYaHei" font-size="14.00">&gt;0.5</text>
</g>
<!-- 7 -->
<g id="node10" class="node">
<title>7</title>
<polygon fill="#d65243" stroke="black" points="591.98,-59.75 449.23,-59.75 449.23,0 591.98,0 591.98,-59.75"/>
<text text-anchor="start" x="516.85" y="-42.45" font-family="MicrosoftYaHei" font-size="14.00">6</text>
<text text-anchor="start" x="457.23" y="-25.2" font-family="MicrosoftYaHei" font-size="14.00">friedman_mse=0.25</text>
<text text-anchor="start" x="510.85" y="-7.95" font-family="MicrosoftYaHei" font-size="14.00">5.5</text>
</g>
<!-- 6&#45;&gt;7 -->
<g id="edge9" class="edge">
<title>6&#45;&gt;7</title>
<path fill="none" stroke="black" d="M548.08,-95.67C544.5,-87.22 540.74,-78.37 537.2,-70.01"/>
<polygon fill="black" stroke="black" points="540.13,-68.96 533,-61.12 533.68,-71.69 540.13,-68.96"/>
<text text-anchor="middle" x="523.63" y="-78.62" font-family="MicrosoftYaHei" font-size="14.00">&lt;=0.5</text>
</g>
<!-- 8 -->
<g id="node11" class="node">
<title>8</title>
<polygon fill="#f1cab6" stroke="black" points="745.23,-59.75 609.98,-59.75 609.98,0 745.23,0 745.23,-59.75"/>
<text text-anchor="start" x="673.85" y="-42.45" font-family="MicrosoftYaHei" font-size="14.00">2</text>
<text text-anchor="start" x="617.98" y="-25.2" font-family="MicrosoftYaHei" font-size="14.00">friedman_mse=4.0</text>
<text text-anchor="start" x="667.85" y="-7.95" font-family="MicrosoftYaHei" font-size="14.00">4.0</text>
</g>
<!-- 6&#45;&gt;8 -->
<g id="edge10" class="edge">
<title>6&#45;&gt;8</title>
<path fill="none" stroke="black" d="M608.26,-96.58C618.41,-86.96 629.18,-76.76 639.12,-67.34"/>
<polygon fill="black" stroke="black" points="641.05,-70.39 645.9,-60.97 636.23,-65.31 641.05,-70.39"/>
<text text-anchor="middle" x="646.22" y="-80.29" font-family="MicrosoftYaHei" font-size="14.00">&gt;0.5</text>
</g>
<!-- 11 -->
<g id="node14" class="node">
<title>11</title>
<polygon fill="#f5a081" stroke="black" points="959.73,-59.75 809.48,-59.75 809.48,0 959.73,0 959.73,-59.75"/>
<text text-anchor="start" x="880.85" y="-42.45" font-family="MicrosoftYaHei" font-size="14.00">6</text>
<text text-anchor="start" x="817.48" y="-25.2" font-family="MicrosoftYaHei" font-size="14.00">friedman_mse=0.222</text>
<text text-anchor="start" x="867.35" y="-7.95" font-family="MicrosoftYaHei" font-size="14.00">4.667</text>
</g>
<!-- 10&#45;&gt;11 -->
<g id="edge13" class="edge">
<title>10&#45;&gt;11</title>
<path fill="none" stroke="black" d="M956.7,-96.27C946.23,-86.77 935.14,-76.71 924.88,-67.41"/>
<polygon fill="black" stroke="black" points="927.61,-65.25 917.85,-61.13 922.91,-70.44 927.61,-65.25"/>
<text text-anchor="middle" x="918.07" y="-80.42" font-family="MicrosoftYaHei" font-size="14.00">&lt;=0.5</text>
</g>
<!-- 12 -->
<g id="node15" class="node">
<title>12</title>
<polygon fill="#b30326" stroke="black" points="1113.23,-59.75 977.98,-59.75 977.98,0 1113.23,0 1113.23,-59.75"/>
<text text-anchor="start" x="1041.85" y="-42.45" font-family="MicrosoftYaHei" font-size="14.00">1</text>
<text text-anchor="start" x="985.98" y="-25.2" font-family="MicrosoftYaHei" font-size="14.00">friedman_mse=0.0</text>
<text text-anchor="start" x="1035.85" y="-7.95" font-family="MicrosoftYaHei" font-size="14.00">6.0</text>
</g>
<!-- 10&#45;&gt;12 -->
<g id="edge14" class="edge">
<title>10&#45;&gt;12</title>
<path fill="none" stroke="black" d="M1018.74,-95.67C1022.24,-87.22 1025.91,-78.37 1029.38,-70.01"/>
<polygon fill="black" stroke="black" points="1032.88,-71.69 1033.48,-61.12 1026.42,-69.01 1032.88,-71.69"/>
<text text-anchor="middle" x="1043.04" y="-78.54" font-family="MicrosoftYaHei" font-size="14.00">&gt;0.5</text>
</g>
<!-- 14 -->
<g id="node16" class="node">
<title>14</title>
<polygon fill="#b30326" stroke="black" points="1456.23,-59.75 1320.98,-59.75 1320.98,0 1456.23,0 1456.23,-59.75"/>
<text text-anchor="start" x="1384.85" y="-42.45" font-family="MicrosoftYaHei" font-size="14.00">3</text>
<text text-anchor="start" x="1328.98" y="-25.2" font-family="MicrosoftYaHei" font-size="14.00">friedman_mse=0.0</text>
<text text-anchor="start" x="1378.85" y="-7.95" font-family="MicrosoftYaHei" font-size="14.00">6.0</text>
</g>
<!-- 13&#45;&gt;14 -->
<g id="edge15" class="edge">
<title>13&#45;&gt;14</title>
<path fill="none" stroke="black" d="M1438.29,-95.97C1431.41,-86.96 1424.16,-77.46 1417.38,-68.58"/>
<polygon fill="black" stroke="black" points="1419.65,-66.79 1410.8,-60.96 1414.09,-71.03 1419.65,-66.79"/>
<text text-anchor="middle" x="1407.48" y="-80.06" font-family="MicrosoftYaHei" font-size="14.00">&lt;=0.5</text>
</g>
<!-- 15 -->
<g id="node17" class="node">
<title>15</title>
<polygon fill="#df644f" stroke="black" points="1624.73,-59.75 1474.48,-59.75 1474.48,0 1624.73,0 1624.73,-59.75"/>
<text text-anchor="start" x="1545.85" y="-42.45" font-family="MicrosoftYaHei" font-size="14.00">3</text>
<text text-anchor="start" x="1482.48" y="-25.2" font-family="MicrosoftYaHei" font-size="14.00">friedman_mse=0.222</text>
<text text-anchor="start" x="1532.35" y="-7.95" font-family="MicrosoftYaHei" font-size="14.00">5.333</text>
</g>
<!-- 13&#45;&gt;15 -->
<g id="edge16" class="edge">
<title>13&#45;&gt;15</title>
<path fill="none" stroke="black" d="M1500.53,-95.97C1507.33,-86.96 1514.49,-77.46 1521.18,-68.58"/>
<polygon fill="black" stroke="black" points="1524.45,-71.05 1527.68,-60.96 1518.86,-66.84 1524.45,-71.05"/>
<text text-anchor="middle" x="1531.15" y="-80.04" font-family="MicrosoftYaHei" font-size="14.00">&gt;0.5</text>
</g>
<!-- 18 -->
<g id="node20" class="node">
<title>18</title>
<ellipse fill="#edd0c1" stroke="black" cx="2234.6" cy="-138" rx="532.6" ry="42.25"/>
<text text-anchor="start" x="2227.1" y="-150.57" font-family="MicrosoftYaHei" font-size="14.00">23</text>
<text text-anchor="start" x="2167.48" y="-133.32" font-family="MicrosoftYaHei" font-size="14.00">friedman_mse=1.592</text>
<text text-anchor="start" x="1866" y="-116.07" font-family="MicrosoftYaHei" font-size="14.00">8.做高数或数分题目时，若您需要使用答案，一般如何获取答案？:问思路（包括助教，老师，同学，搜索引擎）</text>
</g>
<!-- 17&#45;&gt;18 -->
<g id="edge19" class="edge">
<title>17&#45;&gt;18</title>
<path fill="none" stroke="black" d="M2713.52,-219.27C2635.7,-206.23 2548.56,-191.62 2470.16,-178.48"/>
<polygon fill="black" stroke="black" points="2471.1,-174.92 2460.66,-176.72 2469.94,-181.83 2471.1,-174.92"/>
<text text-anchor="middle" x="2474.17" y="-192.4" font-family="MicrosoftYaHei" font-size="14.00">&lt;=0.5</text>
</g>
<!-- 21 -->
<g id="node21" class="node">
<title>21</title>
<ellipse fill="#c0d3f5" stroke="black" cx="3317.6" cy="-138" rx="532.6" ry="42.25"/>
<text text-anchor="start" x="3313.85" y="-150.57" font-family="MicrosoftYaHei" font-size="14.00">6</text>
<text text-anchor="start" x="3257.98" y="-133.32" font-family="MicrosoftYaHei" font-size="14.00">friedman_mse=3.0</text>
<text text-anchor="start" x="2949" y="-116.07" font-family="MicrosoftYaHei" font-size="14.00">8.做高数或数分题目时，若您需要使用答案，一般如何获取答案？:问思路（包括助教，老师，同学，搜索引擎）</text>
</g>
<!-- 17&#45;&gt;21 -->
<g id="edge20" class="edge">
<title>17&#45;&gt;21</title>
<path fill="none" stroke="black" d="M3070.47,-216.88C3105.4,-205.88 3143.35,-193.92 3178.8,-182.74"/>
<polygon fill="black" stroke="black" points="3179.73,-185.81 3188.22,-179.46 3177.63,-179.13 3179.73,-185.81"/>
<text text-anchor="middle" x="3177.67" y="-196.96" font-family="MicrosoftYaHei" font-size="14.00">&gt;0.5</text>
</g>
<!-- 25 -->
<g id="node26" class="node">
<title>25</title>
<ellipse fill="#cc3f39" stroke="black" cx="4082.6" cy="-138" rx="214.42" ry="42.25"/>
<text text-anchor="start" x="4078.85" y="-150.57" font-family="MicrosoftYaHei" font-size="14.00">3</text>
<text text-anchor="start" x="4015.48" y="-133.32" font-family="MicrosoftYaHei" font-size="14.00">friedman_mse=0.222</text>
<text text-anchor="start" x="3938.98" y="-116.07" font-family="MicrosoftYaHei" font-size="14.00">9.问微积分题目的思路时您更倾向于问:同学</text>
</g>
<!-- 24&#45;&gt;25 -->
<g id="edge25" class="edge">
<title>24&#45;&gt;25</title>
<path fill="none" stroke="black" d="M4082.6,-216.05C4082.6,-208.16 4082.6,-199.8 4082.6,-191.62"/>
<polygon fill="black" stroke="black" points="4086.1,-191.62 4082.6,-181.62 4079.1,-191.62 4086.1,-191.62"/>
<text text-anchor="middle" x="4064.93" y="-193.62" font-family="MicrosoftYaHei" font-size="14.00">&lt;=0.5</text>
</g>
<!-- 28 -->
<g id="node27" class="node">
<title>28</title>
<polygon fill="#ed8467" stroke="black" points="4450.23,-167.87 4314.98,-167.87 4314.98,-108.12 4450.23,-108.12 4450.23,-167.87"/>
<text text-anchor="start" x="4378.85" y="-150.57" font-family="MicrosoftYaHei" font-size="14.00">1</text>
<text text-anchor="start" x="4322.98" y="-133.32" font-family="MicrosoftYaHei" font-size="14.00">friedman_mse=0.0</text>
<text text-anchor="start" x="4372.85" y="-116.07" font-family="MicrosoftYaHei" font-size="14.00">5.0</text>
</g>
<!-- 24&#45;&gt;28 -->
<g id="edge26" class="edge">
<title>24&#45;&gt;28</title>
<path fill="none" stroke="black" d="M4198.25,-221.33C4233.19,-209.36 4271.35,-195.24 4305.6,-180.25 4310.6,-178.06 4315.71,-175.68 4320.8,-173.19"/>
<polygon fill="black" stroke="black" points="4322.17,-175.92 4329.55,-168.31 4319.04,-169.66 4322.17,-175.92"/>
<text text-anchor="middle" x="4322.66" y="-187.36" font-family="MicrosoftYaHei" font-size="14.00">&gt;0.5</text>
</g>
<!-- 19 -->
<g id="node22" class="node">
<title>19</title>
<polygon fill="#e4d8d1" stroke="black" points="2222.98,-59.75 2080.23,-59.75 2080.23,0 2222.98,0 2222.98,-59.75"/>
<text text-anchor="start" x="2144.1" y="-42.45" font-family="MicrosoftYaHei" font-size="14.00">14</text>
<text text-anchor="start" x="2088.23" y="-25.2" font-family="MicrosoftYaHei" font-size="14.00">friedman_mse=2.23</text>
<text text-anchor="start" x="2134.35" y="-7.95" font-family="MicrosoftYaHei" font-size="14.00">3.643</text>
</g>
<!-- 18&#45;&gt;19 -->
<g id="edge21" class="edge">
<title>18&#45;&gt;19</title>
<path fill="none" stroke="black" d="M2202.04,-95.36C2195.09,-86.48 2187.79,-77.14 2180.97,-68.42"/>
<polygon fill="black" stroke="black" points="2183.26,-66.67 2174.34,-60.95 2177.74,-70.98 2183.26,-66.67"/>
<text text-anchor="middle" x="2171.31" y="-80.09" font-family="MicrosoftYaHei" font-size="14.00">&lt;=0.5</text>
</g>
<!-- 20 -->
<g id="node23" class="node">
<title>20</title>
<polygon fill="#f5bfa5" stroke="black" points="2391.73,-59.75 2241.48,-59.75 2241.48,0 2391.73,0 2391.73,-59.75"/>
<text text-anchor="start" x="2312.85" y="-42.45" font-family="MicrosoftYaHei" font-size="14.00">9</text>
<text text-anchor="start" x="2249.48" y="-25.2" font-family="MicrosoftYaHei" font-size="14.00">friedman_mse=0.395</text>
<text text-anchor="start" x="2299.35" y="-7.95" font-family="MicrosoftYaHei" font-size="14.00">4.222</text>
</g>
<!-- 18&#45;&gt;20 -->
<g id="edge22" class="edge">
<title>18&#45;&gt;20</title>
<path fill="none" stroke="black" d="M2266.78,-95.36C2273.64,-86.48 2280.85,-77.14 2287.59,-68.42"/>
<polygon fill="black" stroke="black" points="2290.8,-71 2294.14,-60.95 2285.26,-66.72 2290.8,-71"/>
<text text-anchor="middle" x="2297.32" y="-80.07" font-family="MicrosoftYaHei" font-size="14.00">&gt;0.5</text>
</g>
<!-- 22 -->
<g id="node24" class="node">
<title>22</title>
<polygon fill="#f1cab6" stroke="black" points="3308.23,-59.75 3172.98,-59.75 3172.98,0 3308.23,0 3308.23,-59.75"/>
<text text-anchor="start" x="3236.85" y="-42.45" font-family="MicrosoftYaHei" font-size="14.00">4</text>
<text text-anchor="start" x="3180.98" y="-25.2" font-family="MicrosoftYaHei" font-size="14.00">friedman_mse=1.5</text>
<text text-anchor="start" x="3230.85" y="-7.95" font-family="MicrosoftYaHei" font-size="14.00">4.0</text>
</g>
<!-- 21&#45;&gt;22 -->
<g id="edge23" class="edge">
<title>21&#45;&gt;22</title>
<path fill="none" stroke="black" d="M3287.39,-95.36C3281.01,-86.57 3274.31,-77.34 3268.04,-68.7"/>
<polygon fill="black" stroke="black" points="3270.4,-66.98 3261.7,-60.95 3264.74,-71.1 3270.4,-66.98"/>
<text text-anchor="middle" x="3257.77" y="-79.96" font-family="MicrosoftYaHei" font-size="14.00">&lt;=0.5</text>
</g>
<!-- 23 -->
<g id="node25" class="node">
<title>23</title>
<polygon fill="#3a4cc0" stroke="black" points="3461.23,-59.75 3325.98,-59.75 3325.98,0 3461.23,0 3461.23,-59.75"/>
<text text-anchor="start" x="3389.85" y="-42.45" font-family="MicrosoftYaHei" font-size="14.00">2</text>
<text text-anchor="start" x="3333.98" y="-25.2" font-family="MicrosoftYaHei" font-size="14.00">friedman_mse=0.0</text>
<text text-anchor="start" x="3383.85" y="-7.95" font-family="MicrosoftYaHei" font-size="14.00">1.0</text>
</g>
<!-- 21&#45;&gt;23 -->
<g id="edge24" class="edge">
<title>21&#45;&gt;23</title>
<path fill="none" stroke="black" d="M3347.42,-95.36C3353.72,-86.57 3360.33,-77.34 3366.52,-68.7"/>
<polygon fill="black" stroke="black" points="3369.81,-71.11 3372.78,-60.95 3364.12,-67.04 3369.81,-71.11"/>
<text text-anchor="middle" x="3376.86" y="-79.94" font-family="MicrosoftYaHei" font-size="14.00">&gt;0.5</text>
</g>
<!-- 26 -->
<g id="node28" class="node">
<title>26</title>
<polygon fill="#d65243" stroke="black" points="4074.98,-59.75 3932.23,-59.75 3932.23,0 4074.98,0 4074.98,-59.75"/>
<text text-anchor="start" x="3999.85" y="-42.45" font-family="MicrosoftYaHei" font-size="14.00">2</text>
<text text-anchor="start" x="3940.23" y="-25.2" font-family="MicrosoftYaHei" font-size="14.00">friedman_mse=0.25</text>
<text text-anchor="start" x="3993.85" y="-7.95" font-family="MicrosoftYaHei" font-size="14.00">5.5</text>
</g>
<!-- 25&#45;&gt;26 -->
<g id="edge27" class="edge">
<title>25&#45;&gt;26</title>
<path fill="none" stroke="black" d="M4052.06,-95.97C4045.35,-86.96 4038.28,-77.46 4031.67,-68.58"/>
<polygon fill="black" stroke="black" points="4034.03,-66.89 4025.25,-60.96 4028.42,-71.07 4034.03,-66.89"/>
<text text-anchor="middle" x="4021.63" y="-80.02" font-family="MicrosoftYaHei" font-size="14.00">&lt;=0.5</text>
</g>
<!-- 27 -->
<g id="node29" class="node">
<title>27</title>
<polygon fill="#b30326" stroke="black" points="4228.23,-59.75 4092.98,-59.75 4092.98,0 4228.23,0 4228.23,-59.75"/>
<text text-anchor="start" x="4156.85" y="-42.45" font-family="MicrosoftYaHei" font-size="14.00">1</text>
<text text-anchor="start" x="4100.98" y="-25.2" font-family="MicrosoftYaHei" font-size="14.00">friedman_mse=0.0</text>
<text text-anchor="start" x="4150.85" y="-7.95" font-family="MicrosoftYaHei" font-size="14.00">6.0</text>
</g>
<!-- 25&#45;&gt;27 -->
<g id="edge28" class="edge">
<title>25&#45;&gt;27</title>
<path fill="none" stroke="black" d="M4112.76,-95.97C4119.38,-86.96 4126.37,-77.46 4132.89,-68.58"/>
<polygon fill="black" stroke="black" points="4136.12,-71.09 4139.23,-60.96 4130.48,-66.95 4136.12,-71.09"/>
<text text-anchor="middle" x="4143" y="-80" font-family="MicrosoftYaHei" font-size="14.00">&gt;0.5</text>
</g>
</g>
</svg>
